<?xml version="1.0" encoding="utf-8"?>
<!-- Generator: Adobe Illustrator 21.1.0, SVG Export Plug-In . SVG Version: 6.00 Build 0)  -->
<svg version="1.1" id="Calque_1" xmlns="http://www.w3.org/2000/svg" xmlns:xlink="http://www.w3.org/1999/xlink" x="0px" y="0px"
	 viewBox="0 0 878 130" style="enable-background:new 0 0 878 130;" xml:space="preserve">
<style type="text/css">
	.st0{fill:#FCFCFC;}
	.st1{fill:#DD5735;}
</style>
<g>
	<g>
		<path class="st0" d="M14,18.4h9.7v37.9H24l31.8-37.9h10.8L42.8,47.2L69.5,94H58.7L36.8,54.7L23.7,70v24H14V18.4z"/>
		<path class="st0" d="M73.8,66.1c0-4.6,0.8-8.7,2.4-12.4c1.6-3.6,3.7-6.7,6.4-9.3c2.7-2.5,5.7-4.5,9.1-5.8c3.4-1.3,6.9-2,10.5-2
			c4,0,7.6,0.6,10.7,1.9c3.2,1.3,5.8,3.1,8,5.4c2.2,2.3,3.9,5.1,5,8.3c1.2,3.2,1.7,6.8,1.7,10.7c0,1,0,2-0.1,2.9
			c0,1-0.1,1.8-0.3,2.5H83.6c0.1,3,0.7,5.7,1.8,8.1c1.1,2.4,2.6,4.4,4.5,6.1c1.9,1.7,4.1,3,6.7,3.9c2.6,0.9,5.4,1.4,8.5,1.4
			c3.3,0,6.3-0.5,9.1-1.4c2.7-0.9,5.4-2.2,8-3.8l3.3,6.2c-2.8,1.8-5.9,3.3-9.5,4.6c-3.5,1.3-7.6,2-12.1,2c-4.2,0-8.1-0.7-11.7-2
			c-3.7-1.3-6.8-3.3-9.6-5.8c-2.7-2.5-4.9-5.6-6.5-9.2C74.6,74.8,73.8,70.7,73.8,66.1z M119,61.5c0-5.6-1.5-9.9-4.4-12.9
			c-2.9-3-7-4.5-12.2-4.5c-2.3,0-4.5,0.4-6.6,1.2c-2.1,0.8-4,1.9-5.7,3.4c-1.7,1.5-3.1,3.3-4.3,5.5c-1.2,2.2-1.9,4.6-2.3,7.4H119z"
			/>
		<path class="st0" d="M140,110c0.9,0.2,1.7,0.2,2.6,0.2c3.9,0,7.1-1.1,9.6-3.4c2.5-2.3,4.4-5.1,5.8-8.6l1.7-4.2L133.5,38h9.6
			l13.7,31c1.1,2.5,2.2,5.1,3.4,8c1.2,2.8,2.4,5.6,3.5,8.3h0.5c1-2.7,2-5.4,3.1-8.2c1-2.8,2-5.5,2.9-8l12.2-31h9l-24.7,60.6
			c-1.1,2.8-2.3,5.3-3.7,7.7c-1.4,2.4-3,4.4-5,6.2c-1.9,1.7-4.1,3.1-6.6,4.1c-2.5,1-5.3,1.5-8.5,1.5c-2.8,0-5.2-0.4-7.4-1.2l2-7.5
			C138.3,109.7,139.1,109.9,140,110z"/>
		<path class="st0" d="M200,11.9h9.5v22.4l-0.2,10.8c2.7-2.6,5.7-4.7,9.1-6.2c3.3-1.5,6.7-2.3,10-2.3c3.8,0,7.1,0.7,10,2
			c2.9,1.3,5.4,3.3,7.3,5.8c2,2.5,3.4,5.5,4.4,9c1,3.5,1.5,7.4,1.5,11.7c0,4.8-0.7,9-2.1,12.8c-1.4,3.8-3.2,7-5.6,9.6
			c-2.3,2.6-5.1,4.6-8.1,5.9c-3.1,1.3-6.3,2-9.6,2c-2.7,0-5.6-0.7-8.7-2c-3.1-1.3-6-3.2-8.7-5.6h-0.3l-0.8,6.2H200V11.9z
			 M209.5,80.9c2.7,2.4,5.4,4.1,8.1,5.1c2.7,1,5.1,1.5,7.1,1.5c2.5,0,4.7-0.5,6.8-1.6c2.1-1,3.9-2.5,5.4-4.4c1.5-1.9,2.7-4.2,3.6-7
			c0.8-2.8,1.3-5.9,1.3-9.3c0-3.1-0.3-5.9-0.9-8.4c-0.6-2.5-1.6-4.7-2.8-6.5c-1.3-1.8-2.9-3.2-4.9-4.2c-2-1-4.4-1.5-7.1-1.5
			c-2.5,0-5.1,0.7-7.9,2c-2.8,1.3-5.7,3.5-8.6,6.4V80.9z"/>
		<path class="st0" d="M260.2,66.1c0-4.7,0.7-8.9,2.2-12.5c1.5-3.6,3.5-6.7,6.1-9.3c2.5-2.5,5.5-4.5,8.8-5.8c3.3-1.3,6.9-2,10.5-2
			s7.2,0.7,10.5,2c3.3,1.3,6.3,3.2,8.8,5.8c2.5,2.5,4.6,5.6,6.1,9.3c1.5,3.7,2.2,7.8,2.2,12.5c0,4.6-0.7,8.7-2.2,12.4
			s-3.5,6.7-6.1,9.2c-2.5,2.5-5.5,4.4-8.8,5.7c-3.3,1.3-6.9,2-10.5,2s-7.2-0.7-10.5-2c-3.3-1.3-6.3-3.2-8.8-5.7
			c-2.5-2.5-4.6-5.6-6.1-9.2C261,74.8,260.2,70.7,260.2,66.1z M270,66.1c0,3.2,0.4,6.2,1.3,8.8c0.8,2.6,2.1,4.9,3.6,6.7
			c1.6,1.9,3.5,3.3,5.6,4.4c2.2,1,4.6,1.6,7.3,1.6c2.7,0,5.1-0.5,7.3-1.6c2.2-1,4.1-2.5,5.6-4.4c1.6-1.9,2.8-4.1,3.6-6.7
			c0.8-2.6,1.3-5.5,1.3-8.8c0-3.2-0.4-6.2-1.3-8.8c-0.8-2.7-2.1-4.9-3.6-6.9c-1.6-1.9-3.5-3.4-5.6-4.4c-2.2-1-4.6-1.6-7.3-1.6
			c-2.7,0-5.1,0.5-7.3,1.6c-2.2,1-4.1,2.5-5.6,4.4c-1.6,1.9-2.8,4.2-3.6,6.9C270.5,59.9,270,62.9,270,66.1z"/>
		<path class="st0" d="M324.2,79.5c0-3.2,0.7-5.9,2.2-8.2c1.5-2.3,3.9-4.4,7.1-6.1c3.3-1.7,7.5-3.1,12.6-4.2
			c5.1-1.1,11.3-1.9,18.6-2.5c-0.1-1.9-0.4-3.7-0.9-5.4c-0.5-1.7-1.4-3.2-2.5-4.4c-1.2-1.3-2.7-2.3-4.6-3.1
			c-1.9-0.8-4.2-1.2-6.9-1.2c-3.7,0-7.2,0.7-10.6,2.1c-3.4,1.4-6.4,2.9-9,4.6l-3.7-6.5c1.4-0.9,3-1.9,4.9-2.8c1.9-1,3.9-1.8,6-2.6
			c2.1-0.8,4.4-1.4,6.7-1.9c2.4-0.5,4.8-0.7,7.3-0.7c7.7,0,13.4,2.1,17.1,6.3c3.7,4.2,5.6,9.8,5.6,16.8V94h-7.7l-0.8-7.6h-0.3
			c-3.2,2.5-6.6,4.6-10.4,6.3c-3.8,1.8-7.7,2.7-11.7,2.7c-2.6,0-5.1-0.4-7.4-1.1c-2.3-0.7-4.3-1.8-6.1-3.1c-1.7-1.3-3.1-3-4.1-5
			C324.7,84.3,324.2,82,324.2,79.5z M333.5,78.8c0,1.6,0.3,3,1,4.1c0.7,1.1,1.6,2,2.7,2.8c1.1,0.7,2.4,1.3,3.9,1.6
			c1.5,0.3,3.1,0.5,4.7,0.5c3.2,0,6.4-0.7,9.5-2.1c3.1-1.4,6.3-3.5,9.5-6.2V64.7c-6,0.5-11,1.1-15,2c-4,0.8-7.3,1.9-9.7,3.1
			c-2.4,1.2-4.1,2.5-5.1,4C334,75.3,333.5,76.9,333.5,78.8z"/>
		<path class="st0" d="M385.8,38h7.8l0.8,13.3h0.3c2.9-4.5,6.5-8.1,10.8-10.7c4.3-2.6,9-3.9,14.2-3.9c2.1,0,4,0.2,5.8,0.5
			c1.8,0.3,3.5,0.9,5.3,1.8l-2.2,8.2c-2-0.7-3.7-1.2-5-1.5c-1.3-0.3-3.1-0.5-5.4-0.5c-4.2,0-8.3,1.2-12.2,3.6
			c-3.9,2.4-7.5,6.6-10.9,12.4V94h-9.5V38z"/>
		<path class="st0" d="M436.7,66.1c0-4.5,0.7-8.6,2.1-12.3c1.4-3.6,3.3-6.7,5.6-9.3c2.3-2.5,5.1-4.5,8.1-5.9
			c3.1-1.4,6.3-2.1,9.6-2.1c3.5,0,6.5,0.7,9.1,2c2.6,1.3,5.2,3.1,7.8,5.3l-0.3-10.4V11.9h9.5V94h-7.8l-0.8-7.4h-0.3
			c-2.3,2.4-5.1,4.4-8.2,6.2c-3.2,1.7-6.5,2.6-10,2.6c-3.7,0-7-0.7-10-2c-3-1.3-5.5-3.2-7.7-5.7c-2.2-2.5-3.8-5.6-5-9.2
			C437.2,74.9,436.7,70.8,436.7,66.1z M446.5,66c0,6.8,1.4,12,4.3,15.8c2.9,3.8,6.9,5.7,12.2,5.7c5.5,0,10.8-2.8,15.8-8.4V51.1
			c-2.5-2.4-5-4.1-7.4-5.1c-2.4-1-4.9-1.5-7.3-1.5c-2.5,0-4.7,0.5-6.9,1.6c-2.1,1-4,2.5-5.5,4.4c-1.6,1.9-2.8,4.1-3.7,6.7
			C446.9,59.8,446.5,62.8,446.5,66z"/>
		<path class="st0" d="M562.3,18.4h9.7v31.7h31.6V18.4h9.7V94h-9.7V58.4H572V94h-9.7V18.4z"/>
		<path class="st0" d="M623.4,66.1c0-4.6,0.8-8.7,2.4-12.4c1.6-3.6,3.7-6.7,6.4-9.3c2.7-2.5,5.7-4.5,9.1-5.8c3.4-1.3,6.9-2,10.6-2
			c4,0,7.6,0.6,10.7,1.9c3.2,1.3,5.8,3.1,8,5.4c2.2,2.3,3.9,5.1,5,8.3c1.2,3.2,1.7,6.8,1.7,10.7c0,1,0,2-0.1,2.9
			c0,1-0.1,1.8-0.3,2.5h-43.8c0.1,3,0.7,5.7,1.8,8.1c1.1,2.4,2.6,4.4,4.5,6.1c1.9,1.7,4.1,3,6.7,3.9c2.6,0.9,5.4,1.4,8.5,1.4
			c3.3,0,6.3-0.5,9.1-1.4c2.7-0.9,5.4-2.2,8-3.8l3.3,6.2c-2.8,1.8-5.9,3.3-9.5,4.6s-7.6,2-12.1,2c-4.2,0-8.1-0.7-11.7-2
			c-3.7-1.3-6.8-3.3-9.6-5.8c-2.7-2.5-4.9-5.6-6.5-9.2C624.2,74.8,623.4,70.7,623.4,66.1z M668.6,61.5c0-5.6-1.5-9.9-4.4-12.9
			c-2.9-3-7-4.5-12.2-4.5c-2.3,0-4.5,0.4-6.6,1.2c-2.1,0.8-4,1.9-5.7,3.4c-1.7,1.5-3.1,3.3-4.3,5.5c-1.2,2.2-1.9,4.6-2.3,7.4H668.6z
			"/>
		<path class="st0" d="M687.4,38h7.8l0.8,13.3h0.3c2.9-4.5,6.5-8.1,10.8-10.7c4.3-2.6,9-3.9,14.2-3.9c2.1,0,4,0.2,5.8,0.5
			c1.8,0.3,3.5,0.9,5.3,1.8l-2.2,8.2c-2-0.7-3.7-1.2-5-1.5c-1.3-0.3-3.1-0.5-5.4-0.5c-4.2,0-8.3,1.2-12.2,3.6
			c-3.9,2.4-7.5,6.6-10.9,12.4V94h-9.5V38z"/>
		<path class="st0" d="M736.1,66.1c0-4.7,0.8-8.9,2.2-12.5c1.5-3.6,3.5-6.7,6.1-9.3c2.5-2.5,5.5-4.5,8.8-5.8c3.3-1.3,6.9-2,10.6-2
			c3.7,0,7.2,0.7,10.6,2c3.3,1.3,6.3,3.2,8.8,5.8c2.5,2.5,4.6,5.6,6.1,9.3c1.5,3.7,2.2,7.8,2.2,12.5c0,4.6-0.7,8.7-2.2,12.4
			c-1.5,3.7-3.5,6.7-6.1,9.2c-2.5,2.5-5.5,4.4-8.8,5.7c-3.3,1.3-6.9,2-10.6,2c-3.7,0-7.2-0.7-10.6-2c-3.3-1.3-6.3-3.2-8.8-5.7
			c-2.5-2.5-4.6-5.6-6.1-9.2C736.9,74.8,736.1,70.7,736.1,66.1z M745.9,66.1c0,3.2,0.4,6.2,1.3,8.8c0.8,2.6,2.1,4.9,3.6,6.7
			c1.6,1.9,3.5,3.3,5.6,4.4c2.2,1,4.6,1.6,7.3,1.6c2.7,0,5.1-0.5,7.3-1.6c2.2-1,4.1-2.5,5.6-4.4c1.6-1.9,2.8-4.1,3.6-6.7
			c0.8-2.6,1.3-5.5,1.3-8.8c0-3.2-0.4-6.2-1.3-8.8c-0.8-2.7-2.1-4.9-3.6-6.9c-1.6-1.9-3.5-3.4-5.6-4.4c-2.2-1-4.6-1.6-7.3-1.6
			c-2.7,0-5.1,0.5-7.3,1.6c-2.2,1-4.1,2.5-5.6,4.4c-1.6,1.9-2.8,4.2-3.6,6.9C746.4,59.9,745.9,62.9,745.9,66.1z"/>
	</g>
	<rect x="806.7" y="11.9" class="st1" width="57.3" height="106.2"/>
</g>
</svg>
