<?xml version="1.0" encoding="UTF-8"?>
<svg width="3042px" height="1393px" viewBox="0 0 3042 1393" version="1.1" xmlns="http://www.w3.org/2000/svg" xmlns:xlink="http://www.w3.org/1999/xlink">
    <!-- Generator: Sketch 52.2 (67145) - http://www.bohemiancoding.com/sketch -->
    <title>mains</title>
    <desc>Created with Sketch.</desc>
    <defs>
        <filter x="-162.9%" y="-315.1%" width="425.2%" height="730.2%" filterUnits="objectBoundingBox" id="filter-1">
            <feGaussianBlur stdDeviation="12" in="SourceGraphic"></feGaussianBlur>
        </filter>
        <path d="M6.80029018,9.45737197e-14 L21.1807346,9.23705556e-14 C21.7330193,9.0306993e-14 22.1807346,0.44771525 22.1807346,1 L22.1807346,10.424609 C22.1807346,10.9768937 21.7330193,11.424609 21.1807346,11.424609 L0.875051384,11.424609 C0.322766634,11.424609 -0.124948616,10.9768937 -0.124948616,10.424609 C-0.124948616,10.2362866 -0.071770989,10.0517917 0.0284633595,9.89236024 L5.95370216,0.467751264 C6.13671371,0.176655428 6.45644426,9.57643882e-14 6.80029018,9.57012247e-14 Z" id="path-2"></path>
        <filter x="-27.6%" y="-52.5%" width="154.7%" height="205.0%" filterUnits="objectBoundingBox" id="filter-3">
            <feGaussianBlur stdDeviation="4" in="SourceAlpha" result="shadowBlurInner1"></feGaussianBlur>
            <feOffset dx="0" dy="4" in="shadowBlurInner1" result="shadowOffsetInner1"></feOffset>
            <feComposite in="shadowOffsetInner1" in2="SourceAlpha" operator="arithmetic" k2="-1" k3="1" result="shadowInnerInner1"></feComposite>
            <feColorMatrix values="0 0 0 0 0   0 0 0 0 0   0 0 0 0 0  0 0 0 0.2 0" type="matrix" in="shadowInnerInner1"></feColorMatrix>
        </filter>
        <linearGradient x1="28.474139%" y1="80.8644992%" x2="87.0391908%" y2="0%" id="linearGradient-4">
            <stop stop-color="#5B5B5B" offset="0%"></stop>
            <stop stop-color="#DD5735" offset="100%"></stop>
        </linearGradient>
        <filter x="-162.9%" y="-315.1%" width="425.2%" height="730.2%" filterUnits="objectBoundingBox" id="filter-5">
            <feGaussianBlur stdDeviation="12" in="SourceGraphic"></feGaussianBlur>
        </filter>
        <path d="M6.80029018,9.45737197e-14 L21.1807346,9.23705556e-14 C21.7330193,9.0306993e-14 22.1807346,0.44771525 22.1807346,1 L22.1807346,10.424609 C22.1807346,10.9768937 21.7330193,11.424609 21.1807346,11.424609 L0.875051384,11.424609 C0.322766634,11.424609 -0.124948616,10.9768937 -0.124948616,10.424609 C-0.124948616,10.2362866 -0.071770989,10.0517917 0.0284633595,9.89236024 L5.95370216,0.467751264 C6.13671371,0.176655428 6.45644426,9.57643882e-14 6.80029018,9.57012247e-14 Z" id="path-6"></path>
        <filter x="-27.6%" y="-52.5%" width="154.7%" height="205.0%" filterUnits="objectBoundingBox" id="filter-7">
            <feGaussianBlur stdDeviation="4" in="SourceAlpha" result="shadowBlurInner1"></feGaussianBlur>
            <feOffset dx="0" dy="4" in="shadowBlurInner1" result="shadowOffsetInner1"></feOffset>
            <feComposite in="shadowOffsetInner1" in2="SourceAlpha" operator="arithmetic" k2="-1" k3="1" result="shadowInnerInner1"></feComposite>
            <feColorMatrix values="0 0 0 0 0   0 0 0 0 0   0 0 0 0 0  0 0 0 0.2 0" type="matrix" in="shadowInnerInner1"></feColorMatrix>
        </filter>
        <filter x="-162.9%" y="-315.1%" width="425.2%" height="730.2%" filterUnits="objectBoundingBox" id="filter-8">
            <feGaussianBlur stdDeviation="12" in="SourceGraphic"></feGaussianBlur>
        </filter>
        <path d="M6.80029018,9.45737197e-14 L21.1807346,9.23705556e-14 C21.7330193,9.0306993e-14 22.1807346,0.44771525 22.1807346,1 L22.1807346,10.424609 C22.1807346,10.9768937 21.7330193,11.424609 21.1807346,11.424609 L0.875051384,11.424609 C0.322766634,11.424609 -0.124948616,10.9768937 -0.124948616,10.424609 C-0.124948616,10.2362866 -0.071770989,10.0517917 0.0284633595,9.89236024 L5.95370216,0.467751264 C6.13671371,0.176655428 6.45644426,9.57643882e-14 6.80029018,9.57012247e-14 Z" id="path-9"></path>
        <filter x="-27.6%" y="-52.5%" width="154.7%" height="205.0%" filterUnits="objectBoundingBox" id="filter-10">
            <feGaussianBlur stdDeviation="4" in="SourceAlpha" result="shadowBlurInner1"></feGaussianBlur>
            <feOffset dx="0" dy="4" in="shadowBlurInner1" result="shadowOffsetInner1"></feOffset>
            <feComposite in="shadowOffsetInner1" in2="SourceAlpha" operator="arithmetic" k2="-1" k3="1" result="shadowInnerInner1"></feComposite>
            <feColorMatrix values="0 0 0 0 0   0 0 0 0 0   0 0 0 0 0  0 0 0 0.2 0" type="matrix" in="shadowInnerInner1"></feColorMatrix>
        </filter>
        <filter x="-162.9%" y="-315.1%" width="425.2%" height="730.2%" filterUnits="objectBoundingBox" id="filter-11">
            <feGaussianBlur stdDeviation="12" in="SourceGraphic"></feGaussianBlur>
        </filter>
        <path d="M6.80029018,9.45737197e-14 L21.1807346,9.23705556e-14 C21.7330193,9.0306993e-14 22.1807346,0.44771525 22.1807346,1 L22.1807346,10.424609 C22.1807346,10.9768937 21.7330193,11.424609 21.1807346,11.424609 L0.875051384,11.424609 C0.322766634,11.424609 -0.124948616,10.9768937 -0.124948616,10.424609 C-0.124948616,10.2362866 -0.071770989,10.0517917 0.0284633595,9.89236024 L5.95370216,0.467751264 C6.13671371,0.176655428 6.45644426,9.57643882e-14 6.80029018,9.57012247e-14 Z" id="path-12"></path>
        <filter x="-27.6%" y="-52.5%" width="154.7%" height="205.0%" filterUnits="objectBoundingBox" id="filter-13">
            <feGaussianBlur stdDeviation="4" in="SourceAlpha" result="shadowBlurInner1"></feGaussianBlur>
            <feOffset dx="0" dy="4" in="shadowBlurInner1" result="shadowOffsetInner1"></feOffset>
            <feComposite in="shadowOffsetInner1" in2="SourceAlpha" operator="arithmetic" k2="-1" k3="1" result="shadowInnerInner1"></feComposite>
            <feColorMatrix values="0 0 0 0 0   0 0 0 0 0   0 0 0 0 0  0 0 0 0.2 0" type="matrix" in="shadowInnerInner1"></feColorMatrix>
        </filter>
        <filter x="-162.9%" y="-315.1%" width="425.2%" height="730.2%" filterUnits="objectBoundingBox" id="filter-14">
            <feGaussianBlur stdDeviation="12" in="SourceGraphic"></feGaussianBlur>
        </filter>
        <path d="M6.80029018,2.20316406e-15 L21.1807346,0 C21.7330193,-2.06356265e-15 22.1807346,0.44771525 22.1807346,1 L22.1807346,10.424609 C22.1807346,10.9768937 21.7330193,11.424609 21.1807346,11.424609 L0.875051384,11.424609 C0.322766634,11.424609 -0.124948616,10.9768937 -0.124948616,10.424609 C-0.124948616,10.2362866 -0.071770989,10.0517917 0.0284633595,9.89236024 L5.95370216,0.467751264 C6.13671371,0.176655428 6.45644426,3.39383254e-15 6.80029018,3.33066907e-15 Z" id="path-15"></path>
        <filter x="-27.6%" y="-52.5%" width="154.7%" height="205.0%" filterUnits="objectBoundingBox" id="filter-16">
            <feGaussianBlur stdDeviation="4" in="SourceAlpha" result="shadowBlurInner1"></feGaussianBlur>
            <feOffset dx="0" dy="4" in="shadowBlurInner1" result="shadowOffsetInner1"></feOffset>
            <feComposite in="shadowOffsetInner1" in2="SourceAlpha" operator="arithmetic" k2="-1" k3="1" result="shadowInnerInner1"></feComposite>
            <feColorMatrix values="0 0 0 0 0   0 0 0 0 0   0 0 0 0 0  0 0 0 0.2 0" type="matrix" in="shadowInnerInner1"></feColorMatrix>
        </filter>
        <filter x="-162.9%" y="-315.1%" width="425.2%" height="730.2%" filterUnits="objectBoundingBox" id="filter-17">
            <feGaussianBlur stdDeviation="12" in="SourceGraphic"></feGaussianBlur>
        </filter>
        <path d="M6.80029018,9.45737197e-14 L21.1807346,9.23705556e-14 C21.7330193,9.0306993e-14 22.1807346,0.44771525 22.1807346,1 L22.1807346,10.424609 C22.1807346,10.9768937 21.7330193,11.424609 21.1807346,11.424609 L0.875051384,11.424609 C0.322766634,11.424609 -0.124948616,10.9768937 -0.124948616,10.424609 C-0.124948616,10.2362866 -0.071770989,10.0517917 0.0284633595,9.89236024 L5.95370216,0.467751264 C6.13671371,0.176655428 6.45644426,9.57643882e-14 6.80029018,9.57012247e-14 Z" id="path-18"></path>
        <filter x="-27.6%" y="-52.5%" width="154.7%" height="205.0%" filterUnits="objectBoundingBox" id="filter-19">
            <feGaussianBlur stdDeviation="4" in="SourceAlpha" result="shadowBlurInner1"></feGaussianBlur>
            <feOffset dx="0" dy="4" in="shadowBlurInner1" result="shadowOffsetInner1"></feOffset>
            <feComposite in="shadowOffsetInner1" in2="SourceAlpha" operator="arithmetic" k2="-1" k3="1" result="shadowInnerInner1"></feComposite>
            <feColorMatrix values="0 0 0 0 0   0 0 0 0 0   0 0 0 0 0  0 0 0 0.2 0" type="matrix" in="shadowInnerInner1"></feColorMatrix>
        </filter>
        <filter x="-162.9%" y="-315.1%" width="425.2%" height="730.2%" filterUnits="objectBoundingBox" id="filter-20">
            <feGaussianBlur stdDeviation="12" in="SourceGraphic"></feGaussianBlur>
        </filter>
        <path d="M6.80029018,9.45737197e-14 L21.1807346,9.23705556e-14 C21.7330193,9.0306993e-14 22.1807346,0.44771525 22.1807346,1 L22.1807346,10.424609 C22.1807346,10.9768937 21.7330193,11.424609 21.1807346,11.424609 L0.875051384,11.424609 C0.322766634,11.424609 -0.124948616,10.9768937 -0.124948616,10.424609 C-0.124948616,10.2362866 -0.071770989,10.0517917 0.0284633595,9.89236024 L5.95370216,0.467751264 C6.13671371,0.176655428 6.45644426,9.57643882e-14 6.80029018,9.57012247e-14 Z" id="path-21"></path>
        <filter x="-27.6%" y="-52.5%" width="154.7%" height="205.0%" filterUnits="objectBoundingBox" id="filter-22">
            <feGaussianBlur stdDeviation="4" in="SourceAlpha" result="shadowBlurInner1"></feGaussianBlur>
            <feOffset dx="0" dy="4" in="shadowBlurInner1" result="shadowOffsetInner1"></feOffset>
            <feComposite in="shadowOffsetInner1" in2="SourceAlpha" operator="arithmetic" k2="-1" k3="1" result="shadowInnerInner1"></feComposite>
            <feColorMatrix values="0 0 0 0 0   0 0 0 0 0   0 0 0 0 0  0 0 0 0.2 0" type="matrix" in="shadowInnerInner1"></feColorMatrix>
        </filter>
        <filter x="-162.9%" y="-315.1%" width="425.2%" height="730.2%" filterUnits="objectBoundingBox" id="filter-23">
            <feGaussianBlur stdDeviation="12" in="SourceGraphic"></feGaussianBlur>
        </filter>
        <path d="M6.80029018,9.45737197e-14 L21.1807346,9.23705556e-14 C21.7330193,9.0306993e-14 22.1807346,0.44771525 22.1807346,1 L22.1807346,10.424609 C22.1807346,10.9768937 21.7330193,11.424609 21.1807346,11.424609 L0.875051384,11.424609 C0.322766634,11.424609 -0.124948616,10.9768937 -0.124948616,10.424609 C-0.124948616,10.2362866 -0.071770989,10.0517917 0.0284633595,9.89236024 L5.95370216,0.467751264 C6.13671371,0.176655428 6.45644426,9.57643882e-14 6.80029018,9.57012247e-14 Z" id="path-24"></path>
        <filter x="-27.6%" y="-52.5%" width="154.7%" height="205.0%" filterUnits="objectBoundingBox" id="filter-25">
            <feGaussianBlur stdDeviation="4" in="SourceAlpha" result="shadowBlurInner1"></feGaussianBlur>
            <feOffset dx="0" dy="4" in="shadowBlurInner1" result="shadowOffsetInner1"></feOffset>
            <feComposite in="shadowOffsetInner1" in2="SourceAlpha" operator="arithmetic" k2="-1" k3="1" result="shadowInnerInner1"></feComposite>
            <feColorMatrix values="0 0 0 0 0   0 0 0 0 0   0 0 0 0 0  0 0 0 0.2 0" type="matrix" in="shadowInnerInner1"></feColorMatrix>
        </filter>
        <filter x="-162.9%" y="-315.1%" width="425.2%" height="730.2%" filterUnits="objectBoundingBox" id="filter-26">
            <feGaussianBlur stdDeviation="12" in="SourceGraphic"></feGaussianBlur>
        </filter>
        <path d="M6.80029018,9.45737197e-14 L21.1807346,9.23705556e-14 C21.7330193,9.0306993e-14 22.1807346,0.44771525 22.1807346,1 L22.1807346,10.424609 C22.1807346,10.9768937 21.7330193,11.424609 21.1807346,11.424609 L0.875051384,11.424609 C0.322766634,11.424609 -0.124948616,10.9768937 -0.124948616,10.424609 C-0.124948616,10.2362866 -0.071770989,10.0517917 0.0284633595,9.89236024 L5.95370216,0.467751264 C6.13671371,0.176655428 6.45644426,9.57643882e-14 6.80029018,9.57012247e-14 Z" id="path-27"></path>
        <filter x="-27.6%" y="-52.5%" width="154.7%" height="205.0%" filterUnits="objectBoundingBox" id="filter-28">
            <feGaussianBlur stdDeviation="4" in="SourceAlpha" result="shadowBlurInner1"></feGaussianBlur>
            <feOffset dx="0" dy="4" in="shadowBlurInner1" result="shadowOffsetInner1"></feOffset>
            <feComposite in="shadowOffsetInner1" in2="SourceAlpha" operator="arithmetic" k2="-1" k3="1" result="shadowInnerInner1"></feComposite>
            <feColorMatrix values="0 0 0 0 0   0 0 0 0 0   0 0 0 0 0  0 0 0 0.2 0" type="matrix" in="shadowInnerInner1"></feColorMatrix>
        </filter>
        <filter x="-162.9%" y="-315.1%" width="425.2%" height="730.2%" filterUnits="objectBoundingBox" id="filter-29">
            <feGaussianBlur stdDeviation="12" in="SourceGraphic"></feGaussianBlur>
        </filter>
        <path d="M6.80029018,9.45737197e-14 L21.1807346,9.23705556e-14 C21.7330193,9.0306993e-14 22.1807346,0.44771525 22.1807346,1 L22.1807346,10.424609 C22.1807346,10.9768937 21.7330193,11.424609 21.1807346,11.424609 L0.875051384,11.424609 C0.322766634,11.424609 -0.124948616,10.9768937 -0.124948616,10.424609 C-0.124948616,10.2362866 -0.071770989,10.0517917 0.0284633595,9.89236024 L5.95370216,0.467751264 C6.13671371,0.176655428 6.45644426,9.57643882e-14 6.80029018,9.57012247e-14 Z" id="path-30"></path>
        <filter x="-27.6%" y="-52.5%" width="154.7%" height="205.0%" filterUnits="objectBoundingBox" id="filter-31">
            <feGaussianBlur stdDeviation="4" in="SourceAlpha" result="shadowBlurInner1"></feGaussianBlur>
            <feOffset dx="0" dy="4" in="shadowBlurInner1" result="shadowOffsetInner1"></feOffset>
            <feComposite in="shadowOffsetInner1" in2="SourceAlpha" operator="arithmetic" k2="-1" k3="1" result="shadowInnerInner1"></feComposite>
            <feColorMatrix values="0 0 0 0 0   0 0 0 0 0   0 0 0 0 0  0 0 0 0.2 0" type="matrix" in="shadowInnerInner1"></feColorMatrix>
        </filter>
    </defs>
    <g id="mains" stroke="none" stroke-width="1" fill="none" fill-rule="evenodd">
        <g id="MAIN" transform="translate(1023.000000, 202.000000)" fill="#5B5B5B">
            <g id="main-gauche">
                <path d="M59.550283,142.351019 L79.7926415,107.056367 C79.7926415,107.056367 84.030283,63.8344256 89.084717,54.1356116 L91.7159434,25.5578093 C91.7159434,25.5578093 92.2024528,21.0734023 95.295566,17.9080884 C98.3886792,14.7402279 107.073679,6.13216977 107.073679,6.13216977 C107.073679,6.13216977 112.677453,6.30193721 111.694245,11.5927395 L103.639245,22.4383326 L102.343585,40.2240186 C102.343585,40.2240186 104.220849,45.3722163 107.324151,39.9973791 L111.805472,19.0480767 C111.805472,19.0480767 113.011981,12.940693 118.544434,8.78478605 C124.076038,4.62972791 132.086887,0.587565116 132.086887,0.587565116 C132.086887,0.587565116 140.954434,-2.12362093 140.20217,4.09835581 C140.20217,4.09835581 140.686132,5.59146047 135.031415,10.3865419 C129.377547,15.1807744 127.541887,17.0261465 127.541887,17.0261465 C127.541887,17.0261465 123.485943,30.9114256 121.172264,35.1276 C118.857736,39.3412279 121.921132,42.7043209 123.063962,39.9065535 C124.207642,37.108786 132.806887,18.561693 132.806887,18.561693 C132.806887,18.561693 134.527075,13.3065419 139.581509,9.49696047 C144.638491,5.68653023 148.033868,3.9133093 148.033868,3.9133093 C148.033868,3.9133093 156.634811,1.00349535 155.521698,9.04707674 L146.575189,23.254914 L139.53566,39.9430535 C139.53566,39.9430535 139.737736,47.4051814 145.427264,43.8061116 L155.139623,28.9930535 C155.139623,28.9930535 160.58717,16.8283674 161.163679,14.3709837 C161.738491,11.9152977 170.458302,8.46137907 170.526226,16.8343093 C170.593302,25.209786 165.380943,46.1225884 158.847453,55.9342977 C158.847453,55.9342977 158.625,68.5284953 156.914151,73.5994488 C155.205,78.6712512 155.011415,82.801693 156.356321,81.5768209 C157.702075,80.3527977 164.694906,70.5606116 165.328302,64.8878326 C165.963396,59.2142047 169.358774,49.6214953 176.782075,50.2453907 C184.206226,50.869286 180.939906,55.776414 181.881509,65.1110767 C182.824811,74.4465884 181.413679,82.9366581 178.303585,86.4686698 C175.193491,90.0023791 170.354717,100.999914 170.250283,103.202647 C170.148396,105.405379 144.821887,123.535693 144.821887,123.535693 C144.821887,123.535693 124.216981,131.219367 118.366981,142.165972 C112.516132,153.115123 104.013679,173.505891 104.013679,173.505891 L86.8338679,218.67846 L0,218.67846 L59.550283,142.351019 Z" id="Fill-1"></path>
            </g>
            <g id="main-droite" transform="translate(358.500000, 109.500000) scale(-1, 1) translate(-358.500000, -109.500000) translate(267.000000, 0.000000)">
                <path d="M59.550283,142.351019 L79.7926415,107.056367 C79.7926415,107.056367 84.030283,63.8344256 89.084717,54.1356116 L91.7159434,25.5578093 C91.7159434,25.5578093 92.2024528,21.0734023 95.295566,17.9080884 C98.3886792,14.7402279 107.073679,6.13216977 107.073679,6.13216977 C107.073679,6.13216977 112.677453,6.30193721 111.694245,11.5927395 L103.639245,22.4383326 L102.343585,40.2240186 C102.343585,40.2240186 104.220849,45.3722163 107.324151,39.9973791 L111.805472,19.0480767 C111.805472,19.0480767 113.011981,12.940693 118.544434,8.78478605 C124.076038,4.62972791 132.086887,0.587565116 132.086887,0.587565116 C132.086887,0.587565116 140.954434,-2.12362093 140.20217,4.09835581 C140.20217,4.09835581 140.686132,5.59146047 135.031415,10.3865419 C129.377547,15.1807744 127.541887,17.0261465 127.541887,17.0261465 C127.541887,17.0261465 123.485943,30.9114256 121.172264,35.1276 C118.857736,39.3412279 121.921132,42.7043209 123.063962,39.9065535 C124.207642,37.108786 132.806887,18.561693 132.806887,18.561693 C132.806887,18.561693 134.527075,13.3065419 139.581509,9.49696047 C144.638491,5.68653023 148.033868,3.9133093 148.033868,3.9133093 C148.033868,3.9133093 156.634811,1.00349535 155.521698,9.04707674 L146.575189,23.254914 L139.53566,39.9430535 C139.53566,39.9430535 139.737736,47.4051814 145.427264,43.8061116 L155.139623,28.9930535 C155.139623,28.9930535 160.58717,16.8283674 161.163679,14.3709837 C161.738491,11.9152977 170.458302,8.46137907 170.526226,16.8343093 C170.593302,25.209786 165.380943,46.1225884 158.847453,55.9342977 C158.847453,55.9342977 158.625,68.5284953 156.914151,73.5994488 C155.205,78.6712512 155.011415,82.801693 156.356321,81.5768209 C157.702075,80.3527977 164.694906,70.5606116 165.328302,64.8878326 C165.963396,59.2142047 169.358774,49.6214953 176.782075,50.2453907 C184.206226,50.869286 180.939906,55.776414 181.881509,65.1110767 C182.824811,74.4465884 181.413679,82.9366581 178.303585,86.4686698 C175.193491,90.0023791 170.354717,100.999914 170.250283,103.202647 C170.148396,105.405379 144.821887,123.535693 144.821887,123.535693 C144.821887,123.535693 124.216981,131.219367 118.366981,142.165972 C112.516132,153.115123 104.013679,173.505891 104.013679,173.505891 L86.8338679,218.67846 L0,218.67846 L59.550283,142.351019 Z" id="Fill-1"></path>
            </g>
        </g>
        <g id="MAIN-Copy" transform="translate(332.000000, 574.000000)">
            <g id="main-gauche">
                <g id="touche-pouce" transform="translate(163.000000, 49.000000)" fill-rule="nonzero">
                    <path d="M6.80029018,9.01328276e-14 L21.1807346,8.79296636e-14 C21.7330193,8.78282105e-14 22.1807346,0.44771525 22.1807346,1 L22.1807346,10.424609 C22.1807346,10.9768937 21.7330193,11.424609 21.1807346,11.424609 L0.875051384,11.424609 C0.322766634,11.424609 -0.124948616,10.9768937 -0.124948616,10.424609 C-0.124948616,10.2362866 -0.071770989,10.0517917 0.0284633595,9.89236024 L5.95370216,0.467751264 C6.13671371,0.176655428 6.45644426,9.12681553e-14 6.80029018,9.05941988e-14 Z" id="Rectangle-Copy-12" fill="#DD5735" filter="url(#filter-1)"></path>
                    <g id="Rectangle-Copy-12">
                        <use fill="#3B3B3B" xlink:href="#path-2"></use>
                        <use fill="black" fill-opacity="1" filter="url(#filter-3)" xlink:href="#path-2"></use>
                    </g>
                </g>
                <path d="M59.550283,142.351019 L79.7926415,107.056367 C79.7926415,107.056367 84.030283,63.8344256 89.084717,54.1356116 L91.7159434,25.5578093 C91.7159434,25.5578093 92.2024528,21.0734023 95.295566,17.9080884 C98.3886792,14.7402279 107.073679,6.13216977 107.073679,6.13216977 C107.073679,6.13216977 112.677453,6.30193721 111.694245,11.5927395 L103.639245,22.4383326 L102.343585,40.2240186 C102.343585,40.2240186 104.220849,45.3722163 107.324151,39.9973791 L111.805472,19.0480767 C111.805472,19.0480767 113.011981,12.940693 118.544434,8.78478605 C124.076038,4.62972791 132.086887,0.587565116 132.086887,0.587565116 C132.086887,0.587565116 140.954434,-2.12362093 140.20217,4.09835581 C140.20217,4.09835581 140.686132,5.59146047 135.031415,10.3865419 C129.377547,15.1807744 127.541887,17.0261465 127.541887,17.0261465 C127.541887,17.0261465 123.485943,30.9114256 121.172264,35.1276 C118.857736,39.3412279 121.921132,42.7043209 123.063962,39.9065535 C124.207642,37.108786 132.806887,18.561693 132.806887,18.561693 C132.806887,18.561693 134.527075,13.3065419 139.581509,9.49696047 C144.638491,5.68653023 148.033868,3.9133093 148.033868,3.9133093 C148.033868,3.9133093 156.634811,1.00349535 155.521698,9.04707674 L146.575189,23.254914 L139.53566,39.9430535 C139.53566,39.9430535 139.737736,47.4051814 145.427264,43.8061116 L155.139623,28.9930535 C155.139623,28.9930535 160.58717,16.8283674 161.163679,14.3709837 C161.738491,11.9152977 170.458302,8.46137907 170.526226,16.8343093 C170.593302,25.209786 165.380943,46.1225884 158.847453,55.9342977 C158.847453,55.9342977 158.625,68.5284953 156.914151,73.5994488 C155.205,78.6712512 155.011415,82.801693 156.356321,81.5768209 C157.702075,80.3527977 164.694906,70.5606116 165.328302,64.8878326 C165.963396,59.2142047 169.358774,49.6214953 176.782075,50.2453907 C184.206226,50.869286 180.939906,55.776414 181.881509,65.1110767 C182.824811,74.4465884 181.413679,82.9366581 178.303585,86.4686698 C175.193491,90.0023791 170.354717,100.999914 170.250283,103.202647 C170.148396,105.405379 144.821887,123.535693 144.821887,123.535693 C144.821887,123.535693 124.216981,131.219367 118.366981,142.165972 C112.516132,153.115123 104.013679,173.505891 104.013679,173.505891 L86.8338679,218.67846 L0,218.67846 L59.550283,142.351019 Z" id="Fill-1" fill="#5B5B5B"></path>
                <path d="M165.328302,64.8885116 C164.694906,70.5604419 157.702075,80.3534767 156.35717,81.5766512 C156.35717,81.5766512 156.099057,81.7965 155.833302,81.7727326 C155.833302,81.7727326 149.748113,95.2259535 155.21434,99.6288721 C160.680566,104.03264 170.250283,103.203326 170.250283,103.203326 C170.354717,101.000593 175.193491,90.0022093 178.303585,86.4685 C180.75566,83.6834651 182.152358,77.818 182.170189,70.8838488 L182.170189,70.6062791 C182.165943,68.8305116 182.071698,66.987686 181.881509,65.110907 C180.939906,55.7762442 184.206226,50.8691163 176.782075,50.2460698 C176.551132,50.2265465 176.322736,50.2163605 176.098585,50.2163605 C169.149057,50.2163605 165.943019,59.390593 165.328302,64.8885116" id="Fill-16" fill="url(#linearGradient-4)"></path>
            </g>
            <g id="main-droite" transform="translate(358.500000, 109.500000) scale(-1, 1) translate(-358.500000, -109.500000) translate(267.000000, 0.000000)" fill="#5B5B5B">
                <path d="M59.550283,142.351019 L79.7926415,107.056367 C79.7926415,107.056367 84.030283,63.8344256 89.084717,54.1356116 L91.7159434,25.5578093 C91.7159434,25.5578093 92.2024528,21.0734023 95.295566,17.9080884 C98.3886792,14.7402279 107.073679,6.13216977 107.073679,6.13216977 C107.073679,6.13216977 112.677453,6.30193721 111.694245,11.5927395 L103.639245,22.4383326 L102.343585,40.2240186 C102.343585,40.2240186 104.220849,45.3722163 107.324151,39.9973791 L111.805472,19.0480767 C111.805472,19.0480767 113.011981,12.940693 118.544434,8.78478605 C124.076038,4.62972791 132.086887,0.587565116 132.086887,0.587565116 C132.086887,0.587565116 140.954434,-2.12362093 140.20217,4.09835581 C140.20217,4.09835581 140.686132,5.59146047 135.031415,10.3865419 C129.377547,15.1807744 127.541887,17.0261465 127.541887,17.0261465 C127.541887,17.0261465 123.485943,30.9114256 121.172264,35.1276 C118.857736,39.3412279 121.921132,42.7043209 123.063962,39.9065535 C124.207642,37.108786 132.806887,18.561693 132.806887,18.561693 C132.806887,18.561693 134.527075,13.3065419 139.581509,9.49696047 C144.638491,5.68653023 148.033868,3.9133093 148.033868,3.9133093 C148.033868,3.9133093 156.634811,1.00349535 155.521698,9.04707674 L146.575189,23.254914 L139.53566,39.9430535 C139.53566,39.9430535 139.737736,47.4051814 145.427264,43.8061116 L155.139623,28.9930535 C155.139623,28.9930535 160.58717,16.8283674 161.163679,14.3709837 C161.738491,11.9152977 170.458302,8.46137907 170.526226,16.8343093 C170.593302,25.209786 165.380943,46.1225884 158.847453,55.9342977 C158.847453,55.9342977 158.625,68.5284953 156.914151,73.5994488 C155.205,78.6712512 155.011415,82.801693 156.356321,81.5768209 C157.702075,80.3527977 164.694906,70.5606116 165.328302,64.8878326 C165.963396,59.2142047 169.358774,49.6214953 176.782075,50.2453907 C184.206226,50.869286 180.939906,55.776414 181.881509,65.1110767 C182.824811,74.4465884 181.413679,82.9366581 178.303585,86.4686698 C175.193491,90.0023791 170.354717,100.999914 170.250283,103.202647 C170.148396,105.405379 144.821887,123.535693 144.821887,123.535693 C144.821887,123.535693 124.216981,131.219367 118.366981,142.165972 C112.516132,153.115123 104.013679,173.505891 104.013679,173.505891 L86.8338679,218.67846 L0,218.67846 L59.550283,142.351019 Z" id="Fill-1"></path>
            </g>
        </g>
        <g id="MAIN-Copy-3" transform="translate(1296.000000, 574.000000)">
            <g id="main-gauche">
                <g id="touche-majeur" transform="translate(137.000000, 2.000000)" fill-rule="nonzero">
                    <path d="M6.80029018,9.01328276e-14 L21.1807346,8.79296636e-14 C21.7330193,8.78282105e-14 22.1807346,0.44771525 22.1807346,1 L22.1807346,10.424609 C22.1807346,10.9768937 21.7330193,11.424609 21.1807346,11.424609 L0.875051384,11.424609 C0.322766634,11.424609 -0.124948616,10.9768937 -0.124948616,10.424609 C-0.124948616,10.2362866 -0.071770989,10.0517917 0.0284633595,9.89236024 L5.95370216,0.467751264 C6.13671371,0.176655428 6.45644426,9.12681553e-14 6.80029018,9.05941988e-14 Z" id="Rectangle-Copy-12" fill="#DD5735" filter="url(#filter-5)"></path>
                    <g id="Rectangle-Copy-12">
                        <use fill="#3B3B3B" xlink:href="#path-6"></use>
                        <use fill="black" fill-opacity="1" filter="url(#filter-7)" xlink:href="#path-6"></use>
                    </g>
                </g>
                <path d="M59.550283,142.351019 L79.7926415,107.056367 C79.7926415,107.056367 84.030283,63.8344256 89.084717,54.1356116 L91.7159434,25.5578093 C91.7159434,25.5578093 92.2024528,21.0734023 95.295566,17.9080884 C98.3886792,14.7402279 107.073679,6.13216977 107.073679,6.13216977 C107.073679,6.13216977 112.677453,6.30193721 111.694245,11.5927395 L103.639245,22.4383326 L102.343585,40.2240186 C102.343585,40.2240186 104.220849,45.3722163 107.324151,39.9973791 L111.805472,19.0480767 C111.805472,19.0480767 113.011981,12.940693 118.544434,8.78478605 C124.076038,4.62972791 132.086887,0.587565116 132.086887,0.587565116 C132.086887,0.587565116 140.954434,-2.12362093 140.20217,4.09835581 C140.20217,4.09835581 140.686132,5.59146047 135.031415,10.3865419 C129.377547,15.1807744 127.541887,17.0261465 127.541887,17.0261465 C127.541887,17.0261465 123.485943,30.9114256 121.172264,35.1276 C118.857736,39.3412279 121.921132,42.7043209 123.063962,39.9065535 C124.207642,37.108786 132.806887,18.561693 132.806887,18.561693 C132.806887,18.561693 134.527075,13.3065419 139.581509,9.49696047 C144.638491,5.68653023 148.033868,3.9133093 148.033868,3.9133093 C148.033868,3.9133093 156.634811,1.00349535 155.521698,9.04707674 L146.575189,23.254914 L139.53566,39.9430535 C139.53566,39.9430535 139.737736,47.4051814 145.427264,43.8061116 L155.139623,28.9930535 C155.139623,28.9930535 160.58717,16.8283674 161.163679,14.3709837 C161.738491,11.9152977 170.458302,8.46137907 170.526226,16.8343093 C170.593302,25.209786 165.380943,46.1225884 158.847453,55.9342977 C158.847453,55.9342977 158.625,68.5284953 156.914151,73.5994488 C155.205,78.6712512 155.011415,82.801693 156.356321,81.5768209 C157.702075,80.3527977 164.694906,70.5606116 165.328302,64.8878326 C165.963396,59.2142047 169.358774,49.6214953 176.782075,50.2453907 C184.206226,50.869286 180.939906,55.776414 181.881509,65.1110767 C182.824811,74.4465884 181.413679,82.9366581 178.303585,86.4686698 C175.193491,90.0023791 170.354717,100.999914 170.250283,103.202647 C170.148396,105.405379 144.821887,123.535693 144.821887,123.535693 C144.821887,123.535693 124.216981,131.219367 118.366981,142.165972 C112.516132,153.115123 104.013679,173.505891 104.013679,173.505891 L86.8338679,218.67846 L0,218.67846 L59.550283,142.351019 Z" id="Fill-1" fill="#5B5B5B"></path>
                <path d="M148.033868,3.91313953 C148.033868,3.91313953 144.638491,5.68636047 139.581509,9.4967907 C134.526226,13.3063721 132.806038,18.5615233 132.806038,18.5615233 C132.806038,18.5615233 124.207642,37.1086163 123.063962,39.9072326 C123.063962,39.9072326 122.580849,40.9937442 121.889717,40.9292326 C121.198585,40.8647209 123.126792,49.7240349 128.15066,50.1484535 C133.173679,50.5737209 140.138491,47.9788256 141.414623,44.430686 C141.414623,44.430686 139.758962,43.6378721 139.53566,39.9437326 L146.575189,23.2547442 L155.521698,9.04690698 C156.16783,4.38084884 153.542547,3.4012907 151.225472,3.40044186 C149.548585,3.40044186 148.033868,3.91313953 148.033868,3.91313953" id="Fill-7" fill="url(#linearGradient-4)"></path>
            </g>
            <g id="main-droite" transform="translate(358.500000, 109.500000) scale(-1, 1) translate(-358.500000, -109.500000) translate(267.000000, 0.000000)" fill="#5B5B5B">
                <path d="M59.550283,142.351019 L79.7926415,107.056367 C79.7926415,107.056367 84.030283,63.8344256 89.084717,54.1356116 L91.7159434,25.5578093 C91.7159434,25.5578093 92.2024528,21.0734023 95.295566,17.9080884 C98.3886792,14.7402279 107.073679,6.13216977 107.073679,6.13216977 C107.073679,6.13216977 112.677453,6.30193721 111.694245,11.5927395 L103.639245,22.4383326 L102.343585,40.2240186 C102.343585,40.2240186 104.220849,45.3722163 107.324151,39.9973791 L111.805472,19.0480767 C111.805472,19.0480767 113.011981,12.940693 118.544434,8.78478605 C124.076038,4.62972791 132.086887,0.587565116 132.086887,0.587565116 C132.086887,0.587565116 140.954434,-2.12362093 140.20217,4.09835581 C140.20217,4.09835581 140.686132,5.59146047 135.031415,10.3865419 C129.377547,15.1807744 127.541887,17.0261465 127.541887,17.0261465 C127.541887,17.0261465 123.485943,30.9114256 121.172264,35.1276 C118.857736,39.3412279 121.921132,42.7043209 123.063962,39.9065535 C124.207642,37.108786 132.806887,18.561693 132.806887,18.561693 C132.806887,18.561693 134.527075,13.3065419 139.581509,9.49696047 C144.638491,5.68653023 148.033868,3.9133093 148.033868,3.9133093 C148.033868,3.9133093 156.634811,1.00349535 155.521698,9.04707674 L146.575189,23.254914 L139.53566,39.9430535 C139.53566,39.9430535 139.737736,47.4051814 145.427264,43.8061116 L155.139623,28.9930535 C155.139623,28.9930535 160.58717,16.8283674 161.163679,14.3709837 C161.738491,11.9152977 170.458302,8.46137907 170.526226,16.8343093 C170.593302,25.209786 165.380943,46.1225884 158.847453,55.9342977 C158.847453,55.9342977 158.625,68.5284953 156.914151,73.5994488 C155.205,78.6712512 155.011415,82.801693 156.356321,81.5768209 C157.702075,80.3527977 164.694906,70.5606116 165.328302,64.8878326 C165.963396,59.2142047 169.358774,49.6214953 176.782075,50.2453907 C184.206226,50.869286 180.939906,55.776414 181.881509,65.1110767 C182.824811,74.4465884 181.413679,82.9366581 178.303585,86.4686698 C175.193491,90.0023791 170.354717,100.999914 170.250283,103.202647 C170.148396,105.405379 144.821887,123.535693 144.821887,123.535693 C144.821887,123.535693 124.216981,131.219367 118.366981,142.165972 C112.516132,153.115123 104.013679,173.505891 104.013679,173.505891 L86.8338679,218.67846 L0,218.67846 L59.550283,142.351019 Z" id="Fill-1"></path>
            </g>
        </g>
        <g id="MAIN-Copy-2" transform="translate(814.000000, 574.000000)">
            <g id="main-gauche">
                <g id="touche-index" transform="translate(153.000000, 10.000000)" fill-rule="nonzero">
                    <path d="M6.80029018,9.01328276e-14 L21.1807346,8.79296636e-14 C21.7330193,8.78282105e-14 22.1807346,0.44771525 22.1807346,1 L22.1807346,10.424609 C22.1807346,10.9768937 21.7330193,11.424609 21.1807346,11.424609 L0.875051384,11.424609 C0.322766634,11.424609 -0.124948616,10.9768937 -0.124948616,10.424609 C-0.124948616,10.2362866 -0.071770989,10.0517917 0.0284633595,9.89236024 L5.95370216,0.467751264 C6.13671371,0.176655428 6.45644426,9.12681553e-14 6.80029018,9.05941988e-14 Z" id="Rectangle-Copy-12" fill="#DD5735" filter="url(#filter-8)"></path>
                    <g id="Rectangle-Copy-12">
                        <use fill="#3B3B3B" xlink:href="#path-9"></use>
                        <use fill="black" fill-opacity="1" filter="url(#filter-10)" xlink:href="#path-9"></use>
                    </g>
                </g>
                <path d="M59.550283,142.351019 L79.7926415,107.056367 C79.7926415,107.056367 84.030283,63.8344256 89.084717,54.1356116 L91.7159434,25.5578093 C91.7159434,25.5578093 92.2024528,21.0734023 95.295566,17.9080884 C98.3886792,14.7402279 107.073679,6.13216977 107.073679,6.13216977 C107.073679,6.13216977 112.677453,6.30193721 111.694245,11.5927395 L103.639245,22.4383326 L102.343585,40.2240186 C102.343585,40.2240186 104.220849,45.3722163 107.324151,39.9973791 L111.805472,19.0480767 C111.805472,19.0480767 113.011981,12.940693 118.544434,8.78478605 C124.076038,4.62972791 132.086887,0.587565116 132.086887,0.587565116 C132.086887,0.587565116 140.954434,-2.12362093 140.20217,4.09835581 C140.20217,4.09835581 140.686132,5.59146047 135.031415,10.3865419 C129.377547,15.1807744 127.541887,17.0261465 127.541887,17.0261465 C127.541887,17.0261465 123.485943,30.9114256 121.172264,35.1276 C118.857736,39.3412279 121.921132,42.7043209 123.063962,39.9065535 C124.207642,37.108786 132.806887,18.561693 132.806887,18.561693 C132.806887,18.561693 134.527075,13.3065419 139.581509,9.49696047 C144.638491,5.68653023 148.033868,3.9133093 148.033868,3.9133093 C148.033868,3.9133093 156.634811,1.00349535 155.521698,9.04707674 L146.575189,23.254914 L139.53566,39.9430535 C139.53566,39.9430535 139.737736,47.4051814 145.427264,43.8061116 L155.139623,28.9930535 C155.139623,28.9930535 160.58717,16.8283674 161.163679,14.3709837 C161.738491,11.9152977 170.458302,8.46137907 170.526226,16.8343093 C170.593302,25.209786 165.380943,46.1225884 158.847453,55.9342977 C158.847453,55.9342977 158.625,68.5284953 156.914151,73.5994488 C155.205,78.6712512 155.011415,82.801693 156.356321,81.5768209 C157.702075,80.3527977 164.694906,70.5606116 165.328302,64.8878326 C165.963396,59.2142047 169.358774,49.6214953 176.782075,50.2453907 C184.206226,50.869286 180.939906,55.776414 181.881509,65.1110767 C182.824811,74.4465884 181.413679,82.9366581 178.303585,86.4686698 C175.193491,90.0023791 170.354717,100.999914 170.250283,103.202647 C170.148396,105.405379 144.821887,123.535693 144.821887,123.535693 C144.821887,123.535693 124.216981,131.219367 118.366981,142.165972 C112.516132,153.115123 104.013679,173.505891 104.013679,173.505891 L86.8338679,218.67846 L0,218.67846 L59.550283,142.351019 Z" id="Fill-1" fill="#5B5B5B"></path>
                <path d="M161.16283,14.370814 C160.58717,16.8290465 155.139623,28.9928837 155.139623,28.9928837 L145.427264,43.8059419 C145.687075,54.8297907 158.847453,55.9349767 158.847453,55.9349767 C165.380943,46.1224186 170.593302,25.2104651 170.525377,16.8341395 C170.493113,12.8344186 168.486792,11.5331512 166.336981,11.5331512 C163.985943,11.5331512 161.463396,13.0882209 161.16283,14.370814" id="Fill-4" fill="url(#linearGradient-4)"></path>
            </g>
            <g id="main-droite" transform="translate(358.500000, 109.500000) scale(-1, 1) translate(-358.500000, -109.500000) translate(267.000000, 0.000000)" fill="#5B5B5B">
                <path d="M59.550283,142.351019 L79.7926415,107.056367 C79.7926415,107.056367 84.030283,63.8344256 89.084717,54.1356116 L91.7159434,25.5578093 C91.7159434,25.5578093 92.2024528,21.0734023 95.295566,17.9080884 C98.3886792,14.7402279 107.073679,6.13216977 107.073679,6.13216977 C107.073679,6.13216977 112.677453,6.30193721 111.694245,11.5927395 L103.639245,22.4383326 L102.343585,40.2240186 C102.343585,40.2240186 104.220849,45.3722163 107.324151,39.9973791 L111.805472,19.0480767 C111.805472,19.0480767 113.011981,12.940693 118.544434,8.78478605 C124.076038,4.62972791 132.086887,0.587565116 132.086887,0.587565116 C132.086887,0.587565116 140.954434,-2.12362093 140.20217,4.09835581 C140.20217,4.09835581 140.686132,5.59146047 135.031415,10.3865419 C129.377547,15.1807744 127.541887,17.0261465 127.541887,17.0261465 C127.541887,17.0261465 123.485943,30.9114256 121.172264,35.1276 C118.857736,39.3412279 121.921132,42.7043209 123.063962,39.9065535 C124.207642,37.108786 132.806887,18.561693 132.806887,18.561693 C132.806887,18.561693 134.527075,13.3065419 139.581509,9.49696047 C144.638491,5.68653023 148.033868,3.9133093 148.033868,3.9133093 C148.033868,3.9133093 156.634811,1.00349535 155.521698,9.04707674 L146.575189,23.254914 L139.53566,39.9430535 C139.53566,39.9430535 139.737736,47.4051814 145.427264,43.8061116 L155.139623,28.9930535 C155.139623,28.9930535 160.58717,16.8283674 161.163679,14.3709837 C161.738491,11.9152977 170.458302,8.46137907 170.526226,16.8343093 C170.593302,25.209786 165.380943,46.1225884 158.847453,55.9342977 C158.847453,55.9342977 158.625,68.5284953 156.914151,73.5994488 C155.205,78.6712512 155.011415,82.801693 156.356321,81.5768209 C157.702075,80.3527977 164.694906,70.5606116 165.328302,64.8878326 C165.963396,59.2142047 169.358774,49.6214953 176.782075,50.2453907 C184.206226,50.869286 180.939906,55.776414 181.881509,65.1110767 C182.824811,74.4465884 181.413679,82.9366581 178.303585,86.4686698 C175.193491,90.0023791 170.354717,100.999914 170.250283,103.202647 C170.148396,105.405379 144.821887,123.535693 144.821887,123.535693 C144.821887,123.535693 124.216981,131.219367 118.366981,142.165972 C112.516132,153.115123 104.013679,173.505891 104.013679,173.505891 L86.8338679,218.67846 L0,218.67846 L59.550283,142.351019 Z" id="Fill-1"></path>
            </g>
        </g>
        <g id="MAIN-Copy-4" transform="translate(1778.000000, 573.000000)">
            <g id="main-gauche">
                <g id="touche-annulaire" transform="translate(122.000000, 0.000000)" fill-rule="nonzero">
                    <path d="M6.80029018,9.01328276e-14 L21.1807346,8.79296636e-14 C21.7330193,8.78282105e-14 22.1807346,0.44771525 22.1807346,1 L22.1807346,10.424609 C22.1807346,10.9768937 21.7330193,11.424609 21.1807346,11.424609 L0.875051384,11.424609 C0.322766634,11.424609 -0.124948616,10.9768937 -0.124948616,10.424609 C-0.124948616,10.2362866 -0.071770989,10.0517917 0.0284633595,9.89236024 L5.95370216,0.467751264 C6.13671371,0.176655428 6.45644426,9.12681553e-14 6.80029018,9.05941988e-14 Z" id="Rectangle-Copy-12" fill="#DD5735" filter="url(#filter-11)"></path>
                    <g id="Rectangle-Copy-12">
                        <use fill="#3B3B3B" xlink:href="#path-12"></use>
                        <use fill="black" fill-opacity="1" filter="url(#filter-13)" xlink:href="#path-12"></use>
                    </g>
                </g>
                <path d="M59.550283,144.351019 L79.7926415,109.056367 C79.7926415,109.056367 84.030283,65.8344256 89.084717,56.1356116 L91.7159434,27.5578093 C91.7159434,27.5578093 92.2024528,23.0734023 95.295566,19.9080884 C98.3886792,16.7402279 107.073679,8.13216977 107.073679,8.13216977 C107.073679,8.13216977 112.677453,8.30193721 111.694245,13.5927395 L103.639245,24.4383326 L102.343585,42.2240186 C102.343585,42.2240186 104.220849,47.3722163 107.324151,41.9973791 L111.805472,21.0480767 C111.805472,21.0480767 113.011981,14.940693 118.544434,10.784786 C124.076038,6.62972791 132.086887,2.58756512 132.086887,2.58756512 C132.086887,2.58756512 140.954434,-0.12362093 140.20217,6.09835581 C140.20217,6.09835581 140.686132,7.59146047 135.031415,12.3865419 C129.377547,17.1807744 127.541887,19.0261465 127.541887,19.0261465 C127.541887,19.0261465 123.485943,32.9114256 121.172264,37.1276 C118.857736,41.3412279 121.921132,44.7043209 123.063962,41.9065535 C124.207642,39.108786 132.806887,20.561693 132.806887,20.561693 C132.806887,20.561693 134.527075,15.3065419 139.581509,11.4969605 C144.638491,7.68653023 148.033868,5.9133093 148.033868,5.9133093 C148.033868,5.9133093 156.634811,3.00349535 155.521698,11.0470767 L146.575189,25.254914 L139.53566,41.9430535 C139.53566,41.9430535 139.737736,49.4051814 145.427264,45.8061116 L155.139623,30.9930535 C155.139623,30.9930535 160.58717,18.8283674 161.163679,16.3709837 C161.738491,13.9152977 170.458302,10.4613791 170.526226,18.8343093 C170.593302,27.209786 165.380943,48.1225884 158.847453,57.9342977 C158.847453,57.9342977 158.625,70.5284953 156.914151,75.5994488 C155.205,80.6712512 155.011415,84.801693 156.356321,83.5768209 C157.702075,82.3527977 164.694906,72.5606116 165.328302,66.8878326 C165.963396,61.2142047 169.358774,51.6214953 176.782075,52.2453907 C184.206226,52.869286 180.939906,57.776414 181.881509,67.1110767 C182.824811,76.4465884 181.413679,84.9366581 178.303585,88.4686698 C175.193491,92.0023791 170.354717,102.999914 170.250283,105.202647 C170.148396,107.405379 144.821887,125.535693 144.821887,125.535693 C144.821887,125.535693 124.216981,133.219367 118.366981,144.165972 C112.516132,155.115123 104.013679,175.505891 104.013679,175.505891 L86.8338679,220.67846 L0,220.67846 L59.550283,144.351019 Z" id="Fill-1" fill="#5B5B5B"></path>
                <path d="M135.89066,2.00084884 C133.94717,2.01952326 132.086887,2.58824419 132.086887,2.58824419 C132.086887,2.58824419 124.076038,6.62955814 118.544434,10.7854651 C113.01283,14.9413721 111.806321,21.047907 111.806321,21.047907 L107.324151,41.9972093 C107.324151,41.9972093 106.019151,44.4172442 104.667453,44.4410116 C103.315755,44.4647791 107.171321,51.1638023 113.114717,51.4770233 C117.439811,51.7045116 121.65283,42.8867907 121.65283,42.8867907 C120.532075,42.520093 119.581132,40.0245116 121.172264,37.1274302 C123.485943,32.9112558 127.541887,19.0268256 127.541887,19.0268256 C127.541887,19.0268256 129.377547,17.1797558 135.031415,12.3863721 C140.685283,7.5912907 140.203019,6.09818605 140.203019,6.09818605 C140.598679,2.82167442 138.326604,2.0229186 136.086792,2.00084884 L135.89066,2.00084884 Z" id="Fill-10" fill="url(#linearGradient-4)"></path>
            </g>
            <g id="main-droite" transform="translate(358.500000, 111.500000) scale(-1, 1) translate(-358.500000, -111.500000) translate(267.000000, 2.000000)" fill="#5B5B5B">
                <path d="M59.550283,142.351019 L79.7926415,107.056367 C79.7926415,107.056367 84.030283,63.8344256 89.084717,54.1356116 L91.7159434,25.5578093 C91.7159434,25.5578093 92.2024528,21.0734023 95.295566,17.9080884 C98.3886792,14.7402279 107.073679,6.13216977 107.073679,6.13216977 C107.073679,6.13216977 112.677453,6.30193721 111.694245,11.5927395 L103.639245,22.4383326 L102.343585,40.2240186 C102.343585,40.2240186 104.220849,45.3722163 107.324151,39.9973791 L111.805472,19.0480767 C111.805472,19.0480767 113.011981,12.940693 118.544434,8.78478605 C124.076038,4.62972791 132.086887,0.587565116 132.086887,0.587565116 C132.086887,0.587565116 140.954434,-2.12362093 140.20217,4.09835581 C140.20217,4.09835581 140.686132,5.59146047 135.031415,10.3865419 C129.377547,15.1807744 127.541887,17.0261465 127.541887,17.0261465 C127.541887,17.0261465 123.485943,30.9114256 121.172264,35.1276 C118.857736,39.3412279 121.921132,42.7043209 123.063962,39.9065535 C124.207642,37.108786 132.806887,18.561693 132.806887,18.561693 C132.806887,18.561693 134.527075,13.3065419 139.581509,9.49696047 C144.638491,5.68653023 148.033868,3.9133093 148.033868,3.9133093 C148.033868,3.9133093 156.634811,1.00349535 155.521698,9.04707674 L146.575189,23.254914 L139.53566,39.9430535 C139.53566,39.9430535 139.737736,47.4051814 145.427264,43.8061116 L155.139623,28.9930535 C155.139623,28.9930535 160.58717,16.8283674 161.163679,14.3709837 C161.738491,11.9152977 170.458302,8.46137907 170.526226,16.8343093 C170.593302,25.209786 165.380943,46.1225884 158.847453,55.9342977 C158.847453,55.9342977 158.625,68.5284953 156.914151,73.5994488 C155.205,78.6712512 155.011415,82.801693 156.356321,81.5768209 C157.702075,80.3527977 164.694906,70.5606116 165.328302,64.8878326 C165.963396,59.2142047 169.358774,49.6214953 176.782075,50.2453907 C184.206226,50.869286 180.939906,55.776414 181.881509,65.1110767 C182.824811,74.4465884 181.413679,82.9366581 178.303585,86.4686698 C175.193491,90.0023791 170.354717,100.999914 170.250283,103.202647 C170.148396,105.405379 144.821887,123.535693 144.821887,123.535693 C144.821887,123.535693 124.216981,131.219367 118.366981,142.165972 C112.516132,153.115123 104.013679,173.505891 104.013679,173.505891 L86.8338679,218.67846 L0,218.67846 L59.550283,142.351019 Z" id="Fill-1"></path>
            </g>
        </g>
        <g id="MAIN-Copy-5" transform="translate(2260.000000, 574.000000)">
            <g id="main-gauche">
                <g id="touche-auriculaire" transform="translate(95.000000, 6.000000)" fill-rule="nonzero">
                    <path d="M6.80029018,2.20316406e-15 L21.1807346,0 C21.7330193,-1.01453063e-16 22.1807346,0.44771525 22.1807346,1 L22.1807346,10.424609 C22.1807346,10.9768937 21.7330193,11.424609 21.1807346,11.424609 L0.875051384,11.424609 C0.322766634,11.424609 -0.124948616,10.9768937 -0.124948616,10.424609 C-0.124948616,10.2362866 -0.071770989,10.0517917 0.0284633595,9.89236024 L5.95370216,0.467751264 C6.13671371,0.176655428 6.45644426,3.33849178e-15 6.80029018,2.66453526e-15 Z" id="Rectangle-Copy-12" fill="#DD5735" filter="url(#filter-14)"></path>
                    <g id="Rectangle-Copy-12">
                        <use fill="#3B3B3B" xlink:href="#path-15"></use>
                        <use fill="black" fill-opacity="1" filter="url(#filter-16)" xlink:href="#path-15"></use>
                    </g>
                </g>
                <path d="M59.550283,142.351019 L79.7926415,107.056367 C79.7926415,107.056367 84.030283,63.8344256 89.084717,54.1356116 L91.7159434,25.5578093 C91.7159434,25.5578093 92.2024528,21.0734023 95.295566,17.9080884 C98.3886792,14.7402279 107.073679,6.13216977 107.073679,6.13216977 C107.073679,6.13216977 112.677453,6.30193721 111.694245,11.5927395 L103.639245,22.4383326 L102.343585,40.2240186 C102.343585,40.2240186 104.220849,45.3722163 107.324151,39.9973791 L111.805472,19.0480767 C111.805472,19.0480767 113.011981,12.940693 118.544434,8.78478605 C124.076038,4.62972791 132.086887,0.587565116 132.086887,0.587565116 C132.086887,0.587565116 140.954434,-2.12362093 140.20217,4.09835581 C140.20217,4.09835581 140.686132,5.59146047 135.031415,10.3865419 C129.377547,15.1807744 127.541887,17.0261465 127.541887,17.0261465 C127.541887,17.0261465 123.485943,30.9114256 121.172264,35.1276 C118.857736,39.3412279 121.921132,42.7043209 123.063962,39.9065535 C124.207642,37.108786 132.806887,18.561693 132.806887,18.561693 C132.806887,18.561693 134.527075,13.3065419 139.581509,9.49696047 C144.638491,5.68653023 148.033868,3.9133093 148.033868,3.9133093 C148.033868,3.9133093 156.634811,1.00349535 155.521698,9.04707674 L146.575189,23.254914 L139.53566,39.9430535 C139.53566,39.9430535 139.737736,47.4051814 145.427264,43.8061116 L155.139623,28.9930535 C155.139623,28.9930535 160.58717,16.8283674 161.163679,14.3709837 C161.738491,11.9152977 170.458302,8.46137907 170.526226,16.8343093 C170.593302,25.209786 165.380943,46.1225884 158.847453,55.9342977 C158.847453,55.9342977 158.625,68.5284953 156.914151,73.5994488 C155.205,78.6712512 155.011415,82.801693 156.356321,81.5768209 C157.702075,80.3527977 164.694906,70.5606116 165.328302,64.8878326 C165.963396,59.2142047 169.358774,49.6214953 176.782075,50.2453907 C184.206226,50.869286 180.939906,55.776414 181.881509,65.1110767 C182.824811,74.4465884 181.413679,82.9366581 178.303585,86.4686698 C175.193491,90.0023791 170.354717,100.999914 170.250283,103.202647 C170.148396,105.405379 144.821887,123.535693 144.821887,123.535693 C144.821887,123.535693 124.216981,131.219367 118.366981,142.165972 C112.516132,153.115123 104.013679,173.505891 104.013679,173.505891 L86.8338679,218.67846 L0,218.67846 L59.550283,142.351019 Z" id="Fill-1" fill="#5B5B5B"></path>
                <path d="M95.295566,17.9070698 C92.2016038,21.0732326 91.7167925,25.5576395 91.7167925,25.5576395 L89.6000943,48.5322674 C103.034717,54.0395233 104.135943,42.3705581 104.135943,42.3705581 C102.974434,41.948686 102.343585,40.223 102.343585,40.223 L103.638396,22.4381628 L111.693396,11.5925698 C112.677453,6.30176744 107.073679,6.13284884 107.073679,6.13284884 C107.073679,6.13284884 98.3886792,14.7400581 95.295566,17.9070698" id="Fill-13" fill="url(#linearGradient-4)"></path>
            </g>
            <g id="main-droite" transform="translate(358.500000, 109.500000) scale(-1, 1) translate(-358.500000, -109.500000) translate(267.000000, 0.000000)" fill="#5B5B5B">
                <path d="M59.550283,142.351019 L79.7926415,107.056367 C79.7926415,107.056367 84.030283,63.8344256 89.084717,54.1356116 L91.7159434,25.5578093 C91.7159434,25.5578093 92.2024528,21.0734023 95.295566,17.9080884 C98.3886792,14.7402279 107.073679,6.13216977 107.073679,6.13216977 C107.073679,6.13216977 112.677453,6.30193721 111.694245,11.5927395 L103.639245,22.4383326 L102.343585,40.2240186 C102.343585,40.2240186 104.220849,45.3722163 107.324151,39.9973791 L111.805472,19.0480767 C111.805472,19.0480767 113.011981,12.940693 118.544434,8.78478605 C124.076038,4.62972791 132.086887,0.587565116 132.086887,0.587565116 C132.086887,0.587565116 140.954434,-2.12362093 140.20217,4.09835581 C140.20217,4.09835581 140.686132,5.59146047 135.031415,10.3865419 C129.377547,15.1807744 127.541887,17.0261465 127.541887,17.0261465 C127.541887,17.0261465 123.485943,30.9114256 121.172264,35.1276 C118.857736,39.3412279 121.921132,42.7043209 123.063962,39.9065535 C124.207642,37.108786 132.806887,18.561693 132.806887,18.561693 C132.806887,18.561693 134.527075,13.3065419 139.581509,9.49696047 C144.638491,5.68653023 148.033868,3.9133093 148.033868,3.9133093 C148.033868,3.9133093 156.634811,1.00349535 155.521698,9.04707674 L146.575189,23.254914 L139.53566,39.9430535 C139.53566,39.9430535 139.737736,47.4051814 145.427264,43.8061116 L155.139623,28.9930535 C155.139623,28.9930535 160.58717,16.8283674 161.163679,14.3709837 C161.738491,11.9152977 170.458302,8.46137907 170.526226,16.8343093 C170.593302,25.209786 165.380943,46.1225884 158.847453,55.9342977 C158.847453,55.9342977 158.625,68.5284953 156.914151,73.5994488 C155.205,78.6712512 155.011415,82.801693 156.356321,81.5768209 C157.702075,80.3527977 164.694906,70.5606116 165.328302,64.8878326 C165.963396,59.2142047 169.358774,49.6214953 176.782075,50.2453907 C184.206226,50.869286 180.939906,55.776414 181.881509,65.1110767 C182.824811,74.4465884 181.413679,82.9366581 178.303585,86.4686698 C175.193491,90.0023791 170.354717,100.999914 170.250283,103.202647 C170.148396,105.405379 144.821887,123.535693 144.821887,123.535693 C144.821887,123.535693 124.216981,131.219367 118.366981,142.165972 C112.516132,153.115123 104.013679,173.505891 104.013679,173.505891 L86.8338679,218.67846 L0,218.67846 L59.550283,142.351019 Z" id="Fill-1"></path>
            </g>
        </g>
        <g id="MAIN-Copy-6" transform="translate(332.000000, 973.000000)">
            <g id="main-gauche" fill="#5B5B5B">
                <path d="M59.550283,142.351019 L79.7926415,107.056367 C79.7926415,107.056367 84.030283,63.8344256 89.084717,54.1356116 L91.7159434,25.5578093 C91.7159434,25.5578093 92.2024528,21.0734023 95.295566,17.9080884 C98.3886792,14.7402279 107.073679,6.13216977 107.073679,6.13216977 C107.073679,6.13216977 112.677453,6.30193721 111.694245,11.5927395 L103.639245,22.4383326 L102.343585,40.2240186 C102.343585,40.2240186 104.220849,45.3722163 107.324151,39.9973791 L111.805472,19.0480767 C111.805472,19.0480767 113.011981,12.940693 118.544434,8.78478605 C124.076038,4.62972791 132.086887,0.587565116 132.086887,0.587565116 C132.086887,0.587565116 140.954434,-2.12362093 140.20217,4.09835581 C140.20217,4.09835581 140.686132,5.59146047 135.031415,10.3865419 C129.377547,15.1807744 127.541887,17.0261465 127.541887,17.0261465 C127.541887,17.0261465 123.485943,30.9114256 121.172264,35.1276 C118.857736,39.3412279 121.921132,42.7043209 123.063962,39.9065535 C124.207642,37.108786 132.806887,18.561693 132.806887,18.561693 C132.806887,18.561693 134.527075,13.3065419 139.581509,9.49696047 C144.638491,5.68653023 148.033868,3.9133093 148.033868,3.9133093 C148.033868,3.9133093 156.634811,1.00349535 155.521698,9.04707674 L146.575189,23.254914 L139.53566,39.9430535 C139.53566,39.9430535 139.737736,47.4051814 145.427264,43.8061116 L155.139623,28.9930535 C155.139623,28.9930535 160.58717,16.8283674 161.163679,14.3709837 C161.738491,11.9152977 170.458302,8.46137907 170.526226,16.8343093 C170.593302,25.209786 165.380943,46.1225884 158.847453,55.9342977 C158.847453,55.9342977 158.625,68.5284953 156.914151,73.5994488 C155.205,78.6712512 155.011415,82.801693 156.356321,81.5768209 C157.702075,80.3527977 164.694906,70.5606116 165.328302,64.8878326 C165.963396,59.2142047 169.358774,49.6214953 176.782075,50.2453907 C184.206226,50.869286 180.939906,55.776414 181.881509,65.1110767 C182.824811,74.4465884 181.413679,82.9366581 178.303585,86.4686698 C175.193491,90.0023791 170.354717,100.999914 170.250283,103.202647 C170.148396,105.405379 144.821887,123.535693 144.821887,123.535693 C144.821887,123.535693 124.216981,131.219367 118.366981,142.165972 C112.516132,153.115123 104.013679,173.505891 104.013679,173.505891 L86.8338679,218.67846 L0,218.67846 L59.550283,142.351019 Z" id="Fill-1"></path>
            </g>
            <g id="touche-pouce" transform="translate(274.500000, 55.000000) scale(-1, 1) translate(-274.500000, -55.000000) translate(263.000000, 49.000000)" fill-rule="nonzero">
                <path d="M6.80029018,9.01328276e-14 L21.1807346,8.79296636e-14 C21.7330193,8.78282105e-14 22.1807346,0.44771525 22.1807346,1 L22.1807346,10.424609 C22.1807346,10.9768937 21.7330193,11.424609 21.1807346,11.424609 L0.875051384,11.424609 C0.322766634,11.424609 -0.124948616,10.9768937 -0.124948616,10.424609 C-0.124948616,10.2362866 -0.071770989,10.0517917 0.0284633595,9.89236024 L5.95370216,0.467751264 C6.13671371,0.176655428 6.45644426,9.12681553e-14 6.80029018,9.05941988e-14 Z" id="Rectangle-Copy-12" fill="#DD5735" filter="url(#filter-17)"></path>
                <g id="Rectangle-Copy-12">
                    <use fill="#3B3B3B" xlink:href="#path-18"></use>
                    <use fill="black" fill-opacity="1" filter="url(#filter-19)" xlink:href="#path-18"></use>
                </g>
            </g>
            <g id="main-droite" transform="translate(358.500000, 109.500000) scale(-1, 1) translate(-358.500000, -109.500000) translate(267.000000, 0.000000)">
                <path d="M59.550283,142.351019 L79.7926415,107.056367 C79.7926415,107.056367 84.030283,63.8344256 89.084717,54.1356116 L91.7159434,25.5578093 C91.7159434,25.5578093 92.2024528,21.0734023 95.295566,17.9080884 C98.3886792,14.7402279 107.073679,6.13216977 107.073679,6.13216977 C107.073679,6.13216977 112.677453,6.30193721 111.694245,11.5927395 L103.639245,22.4383326 L102.343585,40.2240186 C102.343585,40.2240186 104.220849,45.3722163 107.324151,39.9973791 L111.805472,19.0480767 C111.805472,19.0480767 113.011981,12.940693 118.544434,8.78478605 C124.076038,4.62972791 132.086887,0.587565116 132.086887,0.587565116 C132.086887,0.587565116 140.954434,-2.12362093 140.20217,4.09835581 C140.20217,4.09835581 140.686132,5.59146047 135.031415,10.3865419 C129.377547,15.1807744 127.541887,17.0261465 127.541887,17.0261465 C127.541887,17.0261465 123.485943,30.9114256 121.172264,35.1276 C118.857736,39.3412279 121.921132,42.7043209 123.063962,39.9065535 C124.207642,37.108786 132.806887,18.561693 132.806887,18.561693 C132.806887,18.561693 134.527075,13.3065419 139.581509,9.49696047 C144.638491,5.68653023 148.033868,3.9133093 148.033868,3.9133093 C148.033868,3.9133093 156.634811,1.00349535 155.521698,9.04707674 L146.575189,23.254914 L139.53566,39.9430535 C139.53566,39.9430535 139.737736,47.4051814 145.427264,43.8061116 L155.139623,28.9930535 C155.139623,28.9930535 160.58717,16.8283674 161.163679,14.3709837 C161.738491,11.9152977 170.458302,8.46137907 170.526226,16.8343093 C170.593302,25.209786 165.380943,46.1225884 158.847453,55.9342977 C158.847453,55.9342977 158.625,68.5284953 156.914151,73.5994488 C155.205,78.6712512 155.011415,82.801693 156.356321,81.5768209 C157.702075,80.3527977 164.694906,70.5606116 165.328302,64.8878326 C165.963396,59.2142047 169.358774,49.6214953 176.782075,50.2453907 C184.206226,50.869286 180.939906,55.776414 181.881509,65.1110767 C182.824811,74.4465884 181.413679,82.9366581 178.303585,86.4686698 C175.193491,90.0023791 170.354717,100.999914 170.250283,103.202647 C170.148396,105.405379 144.821887,123.535693 144.821887,123.535693 C144.821887,123.535693 124.216981,131.219367 118.366981,142.165972 C112.516132,153.115123 104.013679,173.505891 104.013679,173.505891 L86.8338679,218.67846 L0,218.67846 L59.550283,142.351019 Z" id="Fill-1" fill="#5B5B5B"></path>
                <path d="M165.328302,64.8885116 C164.694906,70.5604419 157.702075,80.3534767 156.35717,81.5766512 C156.35717,81.5766512 156.099057,81.7965 155.833302,81.7727326 C155.833302,81.7727326 149.748113,95.2259535 155.21434,99.6288721 C160.680566,104.03264 170.250283,103.203326 170.250283,103.203326 C170.354717,101.000593 175.193491,90.0022093 178.303585,86.4685 C180.75566,83.6834651 182.152358,77.818 182.170189,70.8838488 L182.170189,70.6062791 C182.165943,68.8305116 182.071698,66.987686 181.881509,65.110907 C180.939906,55.7762442 184.206226,50.8691163 176.782075,50.2460698 C176.551132,50.2265465 176.322736,50.2163605 176.098585,50.2163605 C169.149057,50.2163605 165.943019,59.390593 165.328302,64.8885116" id="Fill-16" fill="url(#linearGradient-4)"></path>
            </g>
        </g>
        <g id="MAIN-Copy-7" transform="translate(1296.000000, 973.000000)">
            <g id="main-gauche" fill="#5B5B5B">
                <path d="M59.550283,142.351019 L79.7926415,107.056367 C79.7926415,107.056367 84.030283,63.8344256 89.084717,54.1356116 L91.7159434,25.5578093 C91.7159434,25.5578093 92.2024528,21.0734023 95.295566,17.9080884 C98.3886792,14.7402279 107.073679,6.13216977 107.073679,6.13216977 C107.073679,6.13216977 112.677453,6.30193721 111.694245,11.5927395 L103.639245,22.4383326 L102.343585,40.2240186 C102.343585,40.2240186 104.220849,45.3722163 107.324151,39.9973791 L111.805472,19.0480767 C111.805472,19.0480767 113.011981,12.940693 118.544434,8.78478605 C124.076038,4.62972791 132.086887,0.587565116 132.086887,0.587565116 C132.086887,0.587565116 140.954434,-2.12362093 140.20217,4.09835581 C140.20217,4.09835581 140.686132,5.59146047 135.031415,10.3865419 C129.377547,15.1807744 127.541887,17.0261465 127.541887,17.0261465 C127.541887,17.0261465 123.485943,30.9114256 121.172264,35.1276 C118.857736,39.3412279 121.921132,42.7043209 123.063962,39.9065535 C124.207642,37.108786 132.806887,18.561693 132.806887,18.561693 C132.806887,18.561693 134.527075,13.3065419 139.581509,9.49696047 C144.638491,5.68653023 148.033868,3.9133093 148.033868,3.9133093 C148.033868,3.9133093 156.634811,1.00349535 155.521698,9.04707674 L146.575189,23.254914 L139.53566,39.9430535 C139.53566,39.9430535 139.737736,47.4051814 145.427264,43.8061116 L155.139623,28.9930535 C155.139623,28.9930535 160.58717,16.8283674 161.163679,14.3709837 C161.738491,11.9152977 170.458302,8.46137907 170.526226,16.8343093 C170.593302,25.209786 165.380943,46.1225884 158.847453,55.9342977 C158.847453,55.9342977 158.625,68.5284953 156.914151,73.5994488 C155.205,78.6712512 155.011415,82.801693 156.356321,81.5768209 C157.702075,80.3527977 164.694906,70.5606116 165.328302,64.8878326 C165.963396,59.2142047 169.358774,49.6214953 176.782075,50.2453907 C184.206226,50.869286 180.939906,55.776414 181.881509,65.1110767 C182.824811,74.4465884 181.413679,82.9366581 178.303585,86.4686698 C175.193491,90.0023791 170.354717,100.999914 170.250283,103.202647 C170.148396,105.405379 144.821887,123.535693 144.821887,123.535693 C144.821887,123.535693 124.216981,131.219367 118.366981,142.165972 C112.516132,153.115123 104.013679,173.505891 104.013679,173.505891 L86.8338679,218.67846 L0,218.67846 L59.550283,142.351019 Z" id="Fill-1"></path>
            </g>
            <g id="touche-majeur" transform="translate(300.500000, 8.000000) scale(-1, 1) translate(-300.500000, -8.000000) translate(289.000000, 2.000000)" fill-rule="nonzero">
                <path d="M6.80029018,9.01328276e-14 L21.1807346,8.79296636e-14 C21.7330193,8.78282105e-14 22.1807346,0.44771525 22.1807346,1 L22.1807346,10.424609 C22.1807346,10.9768937 21.7330193,11.424609 21.1807346,11.424609 L0.875051384,11.424609 C0.322766634,11.424609 -0.124948616,10.9768937 -0.124948616,10.424609 C-0.124948616,10.2362866 -0.071770989,10.0517917 0.0284633595,9.89236024 L5.95370216,0.467751264 C6.13671371,0.176655428 6.45644426,9.12681553e-14 6.80029018,9.05941988e-14 Z" id="Rectangle-Copy-12" fill="#DD5735" filter="url(#filter-20)"></path>
                <g id="Rectangle-Copy-12">
                    <use fill="#3B3B3B" xlink:href="#path-21"></use>
                    <use fill="black" fill-opacity="1" filter="url(#filter-22)" xlink:href="#path-21"></use>
                </g>
            </g>
            <g id="main-droite" transform="translate(358.500000, 109.500000) scale(-1, 1) translate(-358.500000, -109.500000) translate(267.000000, 0.000000)">
                <path d="M59.550283,142.351019 L79.7926415,107.056367 C79.7926415,107.056367 84.030283,63.8344256 89.084717,54.1356116 L91.7159434,25.5578093 C91.7159434,25.5578093 92.2024528,21.0734023 95.295566,17.9080884 C98.3886792,14.7402279 107.073679,6.13216977 107.073679,6.13216977 C107.073679,6.13216977 112.677453,6.30193721 111.694245,11.5927395 L103.639245,22.4383326 L102.343585,40.2240186 C102.343585,40.2240186 104.220849,45.3722163 107.324151,39.9973791 L111.805472,19.0480767 C111.805472,19.0480767 113.011981,12.940693 118.544434,8.78478605 C124.076038,4.62972791 132.086887,0.587565116 132.086887,0.587565116 C132.086887,0.587565116 140.954434,-2.12362093 140.20217,4.09835581 C140.20217,4.09835581 140.686132,5.59146047 135.031415,10.3865419 C129.377547,15.1807744 127.541887,17.0261465 127.541887,17.0261465 C127.541887,17.0261465 123.485943,30.9114256 121.172264,35.1276 C118.857736,39.3412279 121.921132,42.7043209 123.063962,39.9065535 C124.207642,37.108786 132.806887,18.561693 132.806887,18.561693 C132.806887,18.561693 134.527075,13.3065419 139.581509,9.49696047 C144.638491,5.68653023 148.033868,3.9133093 148.033868,3.9133093 C148.033868,3.9133093 156.634811,1.00349535 155.521698,9.04707674 L146.575189,23.254914 L139.53566,39.9430535 C139.53566,39.9430535 139.737736,47.4051814 145.427264,43.8061116 L155.139623,28.9930535 C155.139623,28.9930535 160.58717,16.8283674 161.163679,14.3709837 C161.738491,11.9152977 170.458302,8.46137907 170.526226,16.8343093 C170.593302,25.209786 165.380943,46.1225884 158.847453,55.9342977 C158.847453,55.9342977 158.625,68.5284953 156.914151,73.5994488 C155.205,78.6712512 155.011415,82.801693 156.356321,81.5768209 C157.702075,80.3527977 164.694906,70.5606116 165.328302,64.8878326 C165.963396,59.2142047 169.358774,49.6214953 176.782075,50.2453907 C184.206226,50.869286 180.939906,55.776414 181.881509,65.1110767 C182.824811,74.4465884 181.413679,82.9366581 178.303585,86.4686698 C175.193491,90.0023791 170.354717,100.999914 170.250283,103.202647 C170.148396,105.405379 144.821887,123.535693 144.821887,123.535693 C144.821887,123.535693 124.216981,131.219367 118.366981,142.165972 C112.516132,153.115123 104.013679,173.505891 104.013679,173.505891 L86.8338679,218.67846 L0,218.67846 L59.550283,142.351019 Z" id="Fill-1" fill="#5B5B5B"></path>
                <path d="M148.033868,3.91313953 C148.033868,3.91313953 144.638491,5.68636047 139.581509,9.4967907 C134.526226,13.3063721 132.806038,18.5615233 132.806038,18.5615233 C132.806038,18.5615233 124.207642,37.1086163 123.063962,39.9072326 C123.063962,39.9072326 122.580849,40.9937442 121.889717,40.9292326 C121.198585,40.8647209 123.126792,49.7240349 128.15066,50.1484535 C133.173679,50.5737209 140.138491,47.9788256 141.414623,44.430686 C141.414623,44.430686 139.758962,43.6378721 139.53566,39.9437326 L146.575189,23.2547442 L155.521698,9.04690698 C156.16783,4.38084884 153.542547,3.4012907 151.225472,3.40044186 C149.548585,3.40044186 148.033868,3.91313953 148.033868,3.91313953" id="Fill-7" fill="url(#linearGradient-4)"></path>
            </g>
        </g>
        <g id="MAIN-Copy-8" transform="translate(814.000000, 973.000000)">
            <g id="main-gauche" fill="#5B5B5B">
                <path d="M59.550283,142.351019 L79.7926415,107.056367 C79.7926415,107.056367 84.030283,63.8344256 89.084717,54.1356116 L91.7159434,25.5578093 C91.7159434,25.5578093 92.2024528,21.0734023 95.295566,17.9080884 C98.3886792,14.7402279 107.073679,6.13216977 107.073679,6.13216977 C107.073679,6.13216977 112.677453,6.30193721 111.694245,11.5927395 L103.639245,22.4383326 L102.343585,40.2240186 C102.343585,40.2240186 104.220849,45.3722163 107.324151,39.9973791 L111.805472,19.0480767 C111.805472,19.0480767 113.011981,12.940693 118.544434,8.78478605 C124.076038,4.62972791 132.086887,0.587565116 132.086887,0.587565116 C132.086887,0.587565116 140.954434,-2.12362093 140.20217,4.09835581 C140.20217,4.09835581 140.686132,5.59146047 135.031415,10.3865419 C129.377547,15.1807744 127.541887,17.0261465 127.541887,17.0261465 C127.541887,17.0261465 123.485943,30.9114256 121.172264,35.1276 C118.857736,39.3412279 121.921132,42.7043209 123.063962,39.9065535 C124.207642,37.108786 132.806887,18.561693 132.806887,18.561693 C132.806887,18.561693 134.527075,13.3065419 139.581509,9.49696047 C144.638491,5.68653023 148.033868,3.9133093 148.033868,3.9133093 C148.033868,3.9133093 156.634811,1.00349535 155.521698,9.04707674 L146.575189,23.254914 L139.53566,39.9430535 C139.53566,39.9430535 139.737736,47.4051814 145.427264,43.8061116 L155.139623,28.9930535 C155.139623,28.9930535 160.58717,16.8283674 161.163679,14.3709837 C161.738491,11.9152977 170.458302,8.46137907 170.526226,16.8343093 C170.593302,25.209786 165.380943,46.1225884 158.847453,55.9342977 C158.847453,55.9342977 158.625,68.5284953 156.914151,73.5994488 C155.205,78.6712512 155.011415,82.801693 156.356321,81.5768209 C157.702075,80.3527977 164.694906,70.5606116 165.328302,64.8878326 C165.963396,59.2142047 169.358774,49.6214953 176.782075,50.2453907 C184.206226,50.869286 180.939906,55.776414 181.881509,65.1110767 C182.824811,74.4465884 181.413679,82.9366581 178.303585,86.4686698 C175.193491,90.0023791 170.354717,100.999914 170.250283,103.202647 C170.148396,105.405379 144.821887,123.535693 144.821887,123.535693 C144.821887,123.535693 124.216981,131.219367 118.366981,142.165972 C112.516132,153.115123 104.013679,173.505891 104.013679,173.505891 L86.8338679,218.67846 L0,218.67846 L59.550283,142.351019 Z" id="Fill-1"></path>
            </g>
            <g id="touche-index" transform="translate(285.500000, 16.000000) scale(-1, 1) translate(-285.500000, -16.000000) translate(274.000000, 10.000000)" fill-rule="nonzero">
                <path d="M6.80029018,9.01328276e-14 L21.1807346,8.79296636e-14 C21.7330193,8.78282105e-14 22.1807346,0.44771525 22.1807346,1 L22.1807346,10.424609 C22.1807346,10.9768937 21.7330193,11.424609 21.1807346,11.424609 L0.875051384,11.424609 C0.322766634,11.424609 -0.124948616,10.9768937 -0.124948616,10.424609 C-0.124948616,10.2362866 -0.071770989,10.0517917 0.0284633595,9.89236024 L5.95370216,0.467751264 C6.13671371,0.176655428 6.45644426,9.12681553e-14 6.80029018,9.05941988e-14 Z" id="Rectangle-Copy-12" fill="#DD5735" filter="url(#filter-23)"></path>
                <g id="Rectangle-Copy-12">
                    <use fill="#3B3B3B" xlink:href="#path-24"></use>
                    <use fill="black" fill-opacity="1" filter="url(#filter-25)" xlink:href="#path-24"></use>
                </g>
            </g>
            <g id="main-droite" transform="translate(358.500000, 109.500000) scale(-1, 1) translate(-358.500000, -109.500000) translate(267.000000, 0.000000)">
                <path d="M59.550283,142.351019 L79.7926415,107.056367 C79.7926415,107.056367 84.030283,63.8344256 89.084717,54.1356116 L91.7159434,25.5578093 C91.7159434,25.5578093 92.2024528,21.0734023 95.295566,17.9080884 C98.3886792,14.7402279 107.073679,6.13216977 107.073679,6.13216977 C107.073679,6.13216977 112.677453,6.30193721 111.694245,11.5927395 L103.639245,22.4383326 L102.343585,40.2240186 C102.343585,40.2240186 104.220849,45.3722163 107.324151,39.9973791 L111.805472,19.0480767 C111.805472,19.0480767 113.011981,12.940693 118.544434,8.78478605 C124.076038,4.62972791 132.086887,0.587565116 132.086887,0.587565116 C132.086887,0.587565116 140.954434,-2.12362093 140.20217,4.09835581 C140.20217,4.09835581 140.686132,5.59146047 135.031415,10.3865419 C129.377547,15.1807744 127.541887,17.0261465 127.541887,17.0261465 C127.541887,17.0261465 123.485943,30.9114256 121.172264,35.1276 C118.857736,39.3412279 121.921132,42.7043209 123.063962,39.9065535 C124.207642,37.108786 132.806887,18.561693 132.806887,18.561693 C132.806887,18.561693 134.527075,13.3065419 139.581509,9.49696047 C144.638491,5.68653023 148.033868,3.9133093 148.033868,3.9133093 C148.033868,3.9133093 156.634811,1.00349535 155.521698,9.04707674 L146.575189,23.254914 L139.53566,39.9430535 C139.53566,39.9430535 139.737736,47.4051814 145.427264,43.8061116 L155.139623,28.9930535 C155.139623,28.9930535 160.58717,16.8283674 161.163679,14.3709837 C161.738491,11.9152977 170.458302,8.46137907 170.526226,16.8343093 C170.593302,25.209786 165.380943,46.1225884 158.847453,55.9342977 C158.847453,55.9342977 158.625,68.5284953 156.914151,73.5994488 C155.205,78.6712512 155.011415,82.801693 156.356321,81.5768209 C157.702075,80.3527977 164.694906,70.5606116 165.328302,64.8878326 C165.963396,59.2142047 169.358774,49.6214953 176.782075,50.2453907 C184.206226,50.869286 180.939906,55.776414 181.881509,65.1110767 C182.824811,74.4465884 181.413679,82.9366581 178.303585,86.4686698 C175.193491,90.0023791 170.354717,100.999914 170.250283,103.202647 C170.148396,105.405379 144.821887,123.535693 144.821887,123.535693 C144.821887,123.535693 124.216981,131.219367 118.366981,142.165972 C112.516132,153.115123 104.013679,173.505891 104.013679,173.505891 L86.8338679,218.67846 L0,218.67846 L59.550283,142.351019 Z" id="Fill-1" fill="#5B5B5B"></path>
                <path d="M161.16283,14.370814 C160.58717,16.8290465 155.139623,28.9928837 155.139623,28.9928837 L145.427264,43.8059419 C145.687075,54.8297907 158.847453,55.9349767 158.847453,55.9349767 C165.380943,46.1224186 170.593302,25.2104651 170.525377,16.8341395 C170.493113,12.8344186 168.486792,11.5331512 166.336981,11.5331512 C163.985943,11.5331512 161.463396,13.0882209 161.16283,14.370814" id="Fill-4" fill="url(#linearGradient-4)"></path>
            </g>
        </g>
        <g id="MAIN-Copy-9" transform="translate(1778.000000, 972.000000)">
            <g id="main-gauche" transform="translate(0.000000, 2.000000)" fill="#5B5B5B">
                <path d="M59.550283,142.351019 L79.7926415,107.056367 C79.7926415,107.056367 84.030283,63.8344256 89.084717,54.1356116 L91.7159434,25.5578093 C91.7159434,25.5578093 92.2024528,21.0734023 95.295566,17.9080884 C98.3886792,14.7402279 107.073679,6.13216977 107.073679,6.13216977 C107.073679,6.13216977 112.677453,6.30193721 111.694245,11.5927395 L103.639245,22.4383326 L102.343585,40.2240186 C102.343585,40.2240186 104.220849,45.3722163 107.324151,39.9973791 L111.805472,19.0480767 C111.805472,19.0480767 113.011981,12.940693 118.544434,8.78478605 C124.076038,4.62972791 132.086887,0.587565116 132.086887,0.587565116 C132.086887,0.587565116 140.954434,-2.12362093 140.20217,4.09835581 C140.20217,4.09835581 140.686132,5.59146047 135.031415,10.3865419 C129.377547,15.1807744 127.541887,17.0261465 127.541887,17.0261465 C127.541887,17.0261465 123.485943,30.9114256 121.172264,35.1276 C118.857736,39.3412279 121.921132,42.7043209 123.063962,39.9065535 C124.207642,37.108786 132.806887,18.561693 132.806887,18.561693 C132.806887,18.561693 134.527075,13.3065419 139.581509,9.49696047 C144.638491,5.68653023 148.033868,3.9133093 148.033868,3.9133093 C148.033868,3.9133093 156.634811,1.00349535 155.521698,9.04707674 L146.575189,23.254914 L139.53566,39.9430535 C139.53566,39.9430535 139.737736,47.4051814 145.427264,43.8061116 L155.139623,28.9930535 C155.139623,28.9930535 160.58717,16.8283674 161.163679,14.3709837 C161.738491,11.9152977 170.458302,8.46137907 170.526226,16.8343093 C170.593302,25.209786 165.380943,46.1225884 158.847453,55.9342977 C158.847453,55.9342977 158.625,68.5284953 156.914151,73.5994488 C155.205,78.6712512 155.011415,82.801693 156.356321,81.5768209 C157.702075,80.3527977 164.694906,70.5606116 165.328302,64.8878326 C165.963396,59.2142047 169.358774,49.6214953 176.782075,50.2453907 C184.206226,50.869286 180.939906,55.776414 181.881509,65.1110767 C182.824811,74.4465884 181.413679,82.9366581 178.303585,86.4686698 C175.193491,90.0023791 170.354717,100.999914 170.250283,103.202647 C170.148396,105.405379 144.821887,123.535693 144.821887,123.535693 C144.821887,123.535693 124.216981,131.219367 118.366981,142.165972 C112.516132,153.115123 104.013679,173.505891 104.013679,173.505891 L86.8338679,218.67846 L0,218.67846 L59.550283,142.351019 Z" id="Fill-1"></path>
            </g>
            <g id="touche-annulaire" transform="translate(315.500000, 6.000000) scale(-1, 1) translate(-315.500000, -6.000000) translate(304.000000, 0.000000)" fill-rule="nonzero">
                <path d="M6.80029018,9.01328276e-14 L21.1807346,8.79296636e-14 C21.7330193,8.78282105e-14 22.1807346,0.44771525 22.1807346,1 L22.1807346,10.424609 C22.1807346,10.9768937 21.7330193,11.424609 21.1807346,11.424609 L0.875051384,11.424609 C0.322766634,11.424609 -0.124948616,10.9768937 -0.124948616,10.424609 C-0.124948616,10.2362866 -0.071770989,10.0517917 0.0284633595,9.89236024 L5.95370216,0.467751264 C6.13671371,0.176655428 6.45644426,9.12681553e-14 6.80029018,9.05941988e-14 Z" id="Rectangle-Copy-12" fill="#DD5735" filter="url(#filter-26)"></path>
                <g id="Rectangle-Copy-12">
                    <use fill="#3B3B3B" xlink:href="#path-27"></use>
                    <use fill="black" fill-opacity="1" filter="url(#filter-28)" xlink:href="#path-27"></use>
                </g>
            </g>
            <g id="main-droite" transform="translate(358.500000, 111.500000) scale(-1, 1) translate(-358.500000, -111.500000) translate(267.000000, 2.000000)">
                <path d="M59.550283,142.351019 L79.7926415,107.056367 C79.7926415,107.056367 84.030283,63.8344256 89.084717,54.1356116 L91.7159434,25.5578093 C91.7159434,25.5578093 92.2024528,21.0734023 95.295566,17.9080884 C98.3886792,14.7402279 107.073679,6.13216977 107.073679,6.13216977 C107.073679,6.13216977 112.677453,6.30193721 111.694245,11.5927395 L103.639245,22.4383326 L102.343585,40.2240186 C102.343585,40.2240186 104.220849,45.3722163 107.324151,39.9973791 L111.805472,19.0480767 C111.805472,19.0480767 113.011981,12.940693 118.544434,8.78478605 C124.076038,4.62972791 132.086887,0.587565116 132.086887,0.587565116 C132.086887,0.587565116 140.954434,-2.12362093 140.20217,4.09835581 C140.20217,4.09835581 140.686132,5.59146047 135.031415,10.3865419 C129.377547,15.1807744 127.541887,17.0261465 127.541887,17.0261465 C127.541887,17.0261465 123.485943,30.9114256 121.172264,35.1276 C118.857736,39.3412279 121.921132,42.7043209 123.063962,39.9065535 C124.207642,37.108786 132.806887,18.561693 132.806887,18.561693 C132.806887,18.561693 134.527075,13.3065419 139.581509,9.49696047 C144.638491,5.68653023 148.033868,3.9133093 148.033868,3.9133093 C148.033868,3.9133093 156.634811,1.00349535 155.521698,9.04707674 L146.575189,23.254914 L139.53566,39.9430535 C139.53566,39.9430535 139.737736,47.4051814 145.427264,43.8061116 L155.139623,28.9930535 C155.139623,28.9930535 160.58717,16.8283674 161.163679,14.3709837 C161.738491,11.9152977 170.458302,8.46137907 170.526226,16.8343093 C170.593302,25.209786 165.380943,46.1225884 158.847453,55.9342977 C158.847453,55.9342977 158.625,68.5284953 156.914151,73.5994488 C155.205,78.6712512 155.011415,82.801693 156.356321,81.5768209 C157.702075,80.3527977 164.694906,70.5606116 165.328302,64.8878326 C165.963396,59.2142047 169.358774,49.6214953 176.782075,50.2453907 C184.206226,50.869286 180.939906,55.776414 181.881509,65.1110767 C182.824811,74.4465884 181.413679,82.9366581 178.303585,86.4686698 C175.193491,90.0023791 170.354717,100.999914 170.250283,103.202647 C170.148396,105.405379 144.821887,123.535693 144.821887,123.535693 C144.821887,123.535693 124.216981,131.219367 118.366981,142.165972 C112.516132,153.115123 104.013679,173.505891 104.013679,173.505891 L86.8338679,218.67846 L0,218.67846 L59.550283,142.351019 Z" id="Fill-1" fill="#5B5B5B"></path>
                <path d="M135.89066,0.00084883721 C133.94717,0.0195232558 132.086887,0.588244186 132.086887,0.588244186 C132.086887,0.588244186 124.076038,4.62955814 118.544434,8.78546512 C113.01283,12.9413721 111.806321,19.047907 111.806321,19.047907 L107.324151,39.9972093 C107.324151,39.9972093 106.019151,42.4172442 104.667453,42.4410116 C103.315755,42.4647791 107.171321,49.1638023 113.114717,49.4770233 C117.439811,49.7045116 121.65283,40.8867907 121.65283,40.8867907 C120.532075,40.520093 119.581132,38.0245116 121.172264,35.1274302 C123.485943,30.9112558 127.541887,17.0268256 127.541887,17.0268256 C127.541887,17.0268256 129.377547,15.1797558 135.031415,10.3863721 C140.685283,5.5912907 140.203019,4.09818605 140.203019,4.09818605 C140.598679,0.821674419 138.326604,0.0229186047 136.086792,0.00084883721 L135.89066,0.00084883721 Z" id="Fill-10" fill="url(#linearGradient-4)"></path>
            </g>
        </g>
        <g id="MAIN-Copy-10" transform="translate(2260.000000, 973.000000)">
            <g id="main-gauche" fill="#5B5B5B">
                <path d="M59.550283,142.351019 L79.7926415,107.056367 C79.7926415,107.056367 84.030283,63.8344256 89.084717,54.1356116 L91.7159434,25.5578093 C91.7159434,25.5578093 92.2024528,21.0734023 95.295566,17.9080884 C98.3886792,14.7402279 107.073679,6.13216977 107.073679,6.13216977 C107.073679,6.13216977 112.677453,6.30193721 111.694245,11.5927395 L103.639245,22.4383326 L102.343585,40.2240186 C102.343585,40.2240186 104.220849,45.3722163 107.324151,39.9973791 L111.805472,19.0480767 C111.805472,19.0480767 113.011981,12.940693 118.544434,8.78478605 C124.076038,4.62972791 132.086887,0.587565116 132.086887,0.587565116 C132.086887,0.587565116 140.954434,-2.12362093 140.20217,4.09835581 C140.20217,4.09835581 140.686132,5.59146047 135.031415,10.3865419 C129.377547,15.1807744 127.541887,17.0261465 127.541887,17.0261465 C127.541887,17.0261465 123.485943,30.9114256 121.172264,35.1276 C118.857736,39.3412279 121.921132,42.7043209 123.063962,39.9065535 C124.207642,37.108786 132.806887,18.561693 132.806887,18.561693 C132.806887,18.561693 134.527075,13.3065419 139.581509,9.49696047 C144.638491,5.68653023 148.033868,3.9133093 148.033868,3.9133093 C148.033868,3.9133093 156.634811,1.00349535 155.521698,9.04707674 L146.575189,23.254914 L139.53566,39.9430535 C139.53566,39.9430535 139.737736,47.4051814 145.427264,43.8061116 L155.139623,28.9930535 C155.139623,28.9930535 160.58717,16.8283674 161.163679,14.3709837 C161.738491,11.9152977 170.458302,8.46137907 170.526226,16.8343093 C170.593302,25.209786 165.380943,46.1225884 158.847453,55.9342977 C158.847453,55.9342977 158.625,68.5284953 156.914151,73.5994488 C155.205,78.6712512 155.011415,82.801693 156.356321,81.5768209 C157.702075,80.3527977 164.694906,70.5606116 165.328302,64.8878326 C165.963396,59.2142047 169.358774,49.6214953 176.782075,50.2453907 C184.206226,50.869286 180.939906,55.776414 181.881509,65.1110767 C182.824811,74.4465884 181.413679,82.9366581 178.303585,86.4686698 C175.193491,90.0023791 170.354717,100.999914 170.250283,103.202647 C170.148396,105.405379 144.821887,123.535693 144.821887,123.535693 C144.821887,123.535693 124.216981,131.219367 118.366981,142.165972 C112.516132,153.115123 104.013679,173.505891 104.013679,173.505891 L86.8338679,218.67846 L0,218.67846 L59.550283,142.351019 Z" id="Fill-1"></path>
            </g>
            <g id="touche-auriculaire" transform="translate(342.500000, 10.000000) scale(-1, 1) translate(-342.500000, -10.000000) translate(331.000000, 4.000000)" fill-rule="nonzero">
                <path d="M6.80029018,9.01328276e-14 L21.1807346,8.79296636e-14 C21.7330193,8.78282105e-14 22.1807346,0.44771525 22.1807346,1 L22.1807346,10.424609 C22.1807346,10.9768937 21.7330193,11.424609 21.1807346,11.424609 L0.875051384,11.424609 C0.322766634,11.424609 -0.124948616,10.9768937 -0.124948616,10.424609 C-0.124948616,10.2362866 -0.071770989,10.0517917 0.0284633595,9.89236024 L5.95370216,0.467751264 C6.13671371,0.176655428 6.45644426,9.12681553e-14 6.80029018,9.05941988e-14 Z" id="Rectangle-Copy-12" fill="#DD5735" filter="url(#filter-29)"></path>
                <g id="Rectangle-Copy-12">
                    <use fill="#3B3B3B" xlink:href="#path-30"></use>
                    <use fill="black" fill-opacity="1" filter="url(#filter-31)" xlink:href="#path-30"></use>
                </g>
            </g>
            <g id="main-droite" transform="translate(358.500000, 109.500000) scale(-1, 1) translate(-358.500000, -109.500000) translate(267.000000, 0.000000)">
                <path d="M59.550283,142.351019 L79.7926415,107.056367 C79.7926415,107.056367 84.030283,63.8344256 89.084717,54.1356116 L91.7159434,25.5578093 C91.7159434,25.5578093 92.2024528,21.0734023 95.295566,17.9080884 C98.3886792,14.7402279 107.073679,6.13216977 107.073679,6.13216977 C107.073679,6.13216977 112.677453,6.30193721 111.694245,11.5927395 L103.639245,22.4383326 L102.343585,40.2240186 C102.343585,40.2240186 104.220849,45.3722163 107.324151,39.9973791 L111.805472,19.0480767 C111.805472,19.0480767 113.011981,12.940693 118.544434,8.78478605 C124.076038,4.62972791 132.086887,0.587565116 132.086887,0.587565116 C132.086887,0.587565116 140.954434,-2.12362093 140.20217,4.09835581 C140.20217,4.09835581 140.686132,5.59146047 135.031415,10.3865419 C129.377547,15.1807744 127.541887,17.0261465 127.541887,17.0261465 C127.541887,17.0261465 123.485943,30.9114256 121.172264,35.1276 C118.857736,39.3412279 121.921132,42.7043209 123.063962,39.9065535 C124.207642,37.108786 132.806887,18.561693 132.806887,18.561693 C132.806887,18.561693 134.527075,13.3065419 139.581509,9.49696047 C144.638491,5.68653023 148.033868,3.9133093 148.033868,3.9133093 C148.033868,3.9133093 156.634811,1.00349535 155.521698,9.04707674 L146.575189,23.254914 L139.53566,39.9430535 C139.53566,39.9430535 139.737736,47.4051814 145.427264,43.8061116 L155.139623,28.9930535 C155.139623,28.9930535 160.58717,16.8283674 161.163679,14.3709837 C161.738491,11.9152977 170.458302,8.46137907 170.526226,16.8343093 C170.593302,25.209786 165.380943,46.1225884 158.847453,55.9342977 C158.847453,55.9342977 158.625,68.5284953 156.914151,73.5994488 C155.205,78.6712512 155.011415,82.801693 156.356321,81.5768209 C157.702075,80.3527977 164.694906,70.5606116 165.328302,64.8878326 C165.963396,59.2142047 169.358774,49.6214953 176.782075,50.2453907 C184.206226,50.869286 180.939906,55.776414 181.881509,65.1110767 C182.824811,74.4465884 181.413679,82.9366581 178.303585,86.4686698 C175.193491,90.0023791 170.354717,100.999914 170.250283,103.202647 C170.148396,105.405379 144.821887,123.535693 144.821887,123.535693 C144.821887,123.535693 124.216981,131.219367 118.366981,142.165972 C112.516132,153.115123 104.013679,173.505891 104.013679,173.505891 L86.8338679,218.67846 L0,218.67846 L59.550283,142.351019 Z" id="Fill-1" fill="#5B5B5B"></path>
                <path d="M95.295566,17.9070698 C92.2016038,21.0732326 91.7167925,25.5576395 91.7167925,25.5576395 L89.6000943,48.5322674 C103.034717,54.0395233 104.135943,42.3705581 104.135943,42.3705581 C102.974434,41.948686 102.343585,40.223 102.343585,40.223 L103.638396,22.4381628 L111.693396,11.5925698 C112.677453,6.30176744 107.073679,6.13284884 107.073679,6.13284884 C107.073679,6.13284884 98.3886792,14.7400581 95.295566,17.9070698" id="Fill-13" fill="url(#linearGradient-4)"></path>
            </g>
        </g>
        <g id="MAIN-Copy-11" transform="translate(1640.000000, 200.000000)">
            <g id="main-gauche">
                <path d="M59.550283,144.351019 L79.7926415,109.056367 C79.7926415,109.056367 84.030283,65.8344256 89.084717,56.1356116 L91.7159434,27.5578093 C91.7159434,27.5578093 92.2024528,23.0734023 95.295566,19.9080884 C98.3886792,16.7402279 107.073679,8.13216977 107.073679,8.13216977 C107.073679,8.13216977 112.677453,8.30193721 111.694245,13.5927395 L103.639245,24.4383326 L102.343585,42.2240186 C102.343585,42.2240186 104.220849,47.3722163 107.324151,41.9973791 L111.805472,21.0480767 C111.805472,21.0480767 113.011981,14.940693 118.544434,10.784786 C124.076038,6.62972791 132.086887,2.58756512 132.086887,2.58756512 C132.086887,2.58756512 140.954434,-0.12362093 140.20217,6.09835581 C140.20217,6.09835581 140.686132,7.59146047 135.031415,12.3865419 C129.377547,17.1807744 127.541887,19.0261465 127.541887,19.0261465 C127.541887,19.0261465 123.485943,32.9114256 121.172264,37.1276 C118.857736,41.3412279 121.921132,44.7043209 123.063962,41.9065535 C124.207642,39.108786 132.806887,20.561693 132.806887,20.561693 C132.806887,20.561693 134.527075,15.3065419 139.581509,11.4969605 C144.638491,7.68653023 148.033868,5.9133093 148.033868,5.9133093 C148.033868,5.9133093 156.634811,3.00349535 155.521698,11.0470767 L146.575189,25.254914 L139.53566,41.9430535 C139.53566,41.9430535 139.737736,49.4051814 145.427264,45.8061116 L155.139623,30.9930535 C155.139623,30.9930535 160.58717,18.8283674 161.163679,16.3709837 C161.738491,13.9152977 170.458302,10.4613791 170.526226,18.8343093 C170.593302,27.209786 165.380943,48.1225884 158.847453,57.9342977 C158.847453,57.9342977 158.625,70.5284953 156.914151,75.5994488 C155.205,80.6712512 155.011415,84.801693 156.356321,83.5768209 C157.702075,82.3527977 164.694906,72.5606116 165.328302,66.8878326 C165.963396,61.2142047 169.358774,51.6214953 176.782075,52.2453907 C184.206226,52.869286 180.939906,57.776414 181.881509,67.1110767 C182.824811,76.4465884 181.413679,84.9366581 178.303585,88.4686698 C175.193491,92.0023791 170.354717,102.999914 170.250283,105.202647 C170.148396,107.405379 144.821887,125.535693 144.821887,125.535693 C144.821887,125.535693 124.216981,133.219367 118.366981,144.165972 C112.516132,155.115123 104.013679,175.505891 104.013679,175.505891 L86.8338679,220.67846 L0,220.67846 L59.550283,144.351019 Z" id="Fill-1" fill="#5B5B5B"></path>
                <path d="M165.328302,66.8885116 C164.694906,72.5604419 157.702075,82.3534767 156.35717,83.5766512 C156.35717,83.5766512 156.099057,83.7965 155.833302,83.7727326 C155.833302,83.7727326 149.748113,97.2259535 155.21434,101.628872 C160.680566,106.03264 170.250283,105.203326 170.250283,105.203326 C170.354717,103.000593 175.193491,92.0022093 178.303585,88.4685 C180.75566,85.6834651 182.152358,79.818 182.170189,72.8838488 L182.170189,72.6062791 C182.165943,70.8305116 182.071698,68.987686 181.881509,67.110907 C180.939906,57.7762442 184.206226,52.8691163 176.782075,52.2460698 C176.551132,52.2265465 176.322736,52.2163605 176.098585,52.2163605 C169.149057,52.2163605 165.943019,61.390593 165.328302,66.8885116" id="Fill-16" fill="url(#linearGradient-4)"></path>
                <path d="M95.295566,19.9070698 C92.2016038,23.0732326 91.7167925,27.5576395 91.7167925,27.5576395 L89.6000943,50.5322674 C103.034717,56.0395233 104.135943,44.3705581 104.135943,44.3705581 C102.974434,43.948686 102.343585,42.223 102.343585,42.223 L103.638396,24.4381628 L111.693396,13.5925698 C112.677453,8.30176744 107.073679,8.13284884 107.073679,8.13284884 C107.073679,8.13284884 98.3886792,16.7400581 95.295566,19.9070698" id="Fill-13" fill="url(#linearGradient-4)"></path>
                <path d="M135.89066,2.00084884 C133.94717,2.01952326 132.086887,2.58824419 132.086887,2.58824419 C132.086887,2.58824419 124.076038,6.62955814 118.544434,10.7854651 C113.01283,14.9413721 111.806321,21.047907 111.806321,21.047907 L107.324151,41.9972093 C107.324151,41.9972093 106.019151,44.4172442 104.667453,44.4410116 C103.315755,44.4647791 107.171321,51.1638023 113.114717,51.4770233 C117.439811,51.7045116 121.65283,42.8867907 121.65283,42.8867907 C120.532075,42.520093 119.581132,40.0245116 121.172264,37.1274302 C123.485943,32.9112558 127.541887,19.0268256 127.541887,19.0268256 C127.541887,19.0268256 129.377547,17.1797558 135.031415,12.3863721 C140.685283,7.5912907 140.203019,6.09818605 140.203019,6.09818605 C140.598679,2.82167442 138.326604,2.0229186 136.086792,2.00084884 L135.89066,2.00084884 Z" id="Fill-10" fill="url(#linearGradient-4)"></path>
                <path d="M148.033868,5.91313953 C148.033868,5.91313953 144.638491,7.68636047 139.581509,11.4967907 C134.526226,15.3063721 132.806038,20.5615233 132.806038,20.5615233 C132.806038,20.5615233 124.207642,39.1086163 123.063962,41.9072326 C123.063962,41.9072326 122.580849,42.9937442 121.889717,42.9292326 C121.198585,42.8647209 123.126792,51.7240349 128.15066,52.1484535 C133.173679,52.5737209 140.138491,49.9788256 141.414623,46.430686 C141.414623,46.430686 139.758962,45.6378721 139.53566,41.9437326 L146.575189,25.2547442 L155.521698,11.046907 C156.16783,6.38084884 153.542547,5.4012907 151.225472,5.40044186 C149.548585,5.40044186 148.033868,5.91313953 148.033868,5.91313953" id="Fill-7" fill="url(#linearGradient-4)"></path>
                <path d="M161.16283,16.370814 C160.58717,18.8290465 155.139623,30.9928837 155.139623,30.9928837 L145.427264,45.8059419 C145.687075,56.8297907 158.847453,57.9349767 158.847453,57.9349767 C165.380943,48.1224186 170.593302,27.2104651 170.525377,18.8341395 C170.493113,14.8344186 168.486792,13.5331512 166.336981,13.5331512 C163.985943,13.5331512 161.463396,15.0882209 161.16283,16.370814" id="Fill-4" fill="url(#linearGradient-4)"></path>
            </g>
            <g id="main-droite" transform="translate(358.500000, 111.500000) scale(-1, 1) translate(-358.500000, -111.500000) translate(267.000000, 2.000000)">
                <path d="M59.550283,142.351019 L79.7926415,107.056367 C79.7926415,107.056367 84.030283,63.8344256 89.084717,54.1356116 L91.7159434,25.5578093 C91.7159434,25.5578093 92.2024528,21.0734023 95.295566,17.9080884 C98.3886792,14.7402279 107.073679,6.13216977 107.073679,6.13216977 C107.073679,6.13216977 112.677453,6.30193721 111.694245,11.5927395 L103.639245,22.4383326 L102.343585,40.2240186 C102.343585,40.2240186 104.220849,45.3722163 107.324151,39.9973791 L111.805472,19.0480767 C111.805472,19.0480767 113.011981,12.940693 118.544434,8.78478605 C124.076038,4.62972791 132.086887,0.587565116 132.086887,0.587565116 C132.086887,0.587565116 140.954434,-2.12362093 140.20217,4.09835581 C140.20217,4.09835581 140.686132,5.59146047 135.031415,10.3865419 C129.377547,15.1807744 127.541887,17.0261465 127.541887,17.0261465 C127.541887,17.0261465 123.485943,30.9114256 121.172264,35.1276 C118.857736,39.3412279 121.921132,42.7043209 123.063962,39.9065535 C124.207642,37.108786 132.806887,18.561693 132.806887,18.561693 C132.806887,18.561693 134.527075,13.3065419 139.581509,9.49696047 C144.638491,5.68653023 148.033868,3.9133093 148.033868,3.9133093 C148.033868,3.9133093 156.634811,1.00349535 155.521698,9.04707674 L146.575189,23.254914 L139.53566,39.9430535 C139.53566,39.9430535 139.737736,47.4051814 145.427264,43.8061116 L155.139623,28.9930535 C155.139623,28.9930535 160.58717,16.8283674 161.163679,14.3709837 C161.738491,11.9152977 170.458302,8.46137907 170.526226,16.8343093 C170.593302,25.209786 165.380943,46.1225884 158.847453,55.9342977 C158.847453,55.9342977 158.625,68.5284953 156.914151,73.5994488 C155.205,78.6712512 155.011415,82.801693 156.356321,81.5768209 C157.702075,80.3527977 164.694906,70.5606116 165.328302,64.8878326 C165.963396,59.2142047 169.358774,49.6214953 176.782075,50.2453907 C184.206226,50.869286 180.939906,55.776414 181.881509,65.1110767 C182.824811,74.4465884 181.413679,82.9366581 178.303585,86.4686698 C175.193491,90.0023791 170.354717,100.999914 170.250283,103.202647 C170.148396,105.405379 144.821887,123.535693 144.821887,123.535693 C144.821887,123.535693 124.216981,131.219367 118.366981,142.165972 C112.516132,153.115123 104.013679,173.505891 104.013679,173.505891 L86.8338679,218.67846 L0,218.67846 L59.550283,142.351019 Z" id="Fill-1" fill="#5B5B5B"></path>
                <path d="M165.328302,64.8885116 C164.694906,70.5604419 157.702075,80.3534767 156.35717,81.5766512 C156.35717,81.5766512 156.099057,81.7965 155.833302,81.7727326 C155.833302,81.7727326 149.748113,95.2259535 155.21434,99.6288721 C160.680566,104.03264 170.250283,103.203326 170.250283,103.203326 C170.354717,101.000593 175.193491,90.0022093 178.303585,86.4685 C180.75566,83.6834651 182.152358,77.818 182.170189,70.8838488 L182.170189,70.6062791 C182.165943,68.8305116 182.071698,66.987686 181.881509,65.110907 C180.939906,55.7762442 184.206226,50.8691163 176.782075,50.2460698 C176.551132,50.2265465 176.322736,50.2163605 176.098585,50.2163605 C169.149057,50.2163605 165.943019,59.390593 165.328302,64.8885116" id="Fill-16" fill="url(#linearGradient-4)"></path>
                <path d="M95.295566,17.9070698 C92.2016038,21.0732326 91.7167925,25.5576395 91.7167925,25.5576395 L89.6000943,48.5322674 C103.034717,54.0395233 104.135943,42.3705581 104.135943,42.3705581 C102.974434,41.948686 102.343585,40.223 102.343585,40.223 L103.638396,22.4381628 L111.693396,11.5925698 C112.677453,6.30176744 107.073679,6.13284884 107.073679,6.13284884 C107.073679,6.13284884 98.3886792,14.7400581 95.295566,17.9070698" id="Fill-13" fill="url(#linearGradient-4)"></path>
                <path d="M135.89066,0.00084883721 C133.94717,0.0195232558 132.086887,0.588244186 132.086887,0.588244186 C132.086887,0.588244186 124.076038,4.62955814 118.544434,8.78546512 C113.01283,12.9413721 111.806321,19.047907 111.806321,19.047907 L107.324151,39.9972093 C107.324151,39.9972093 106.019151,42.4172442 104.667453,42.4410116 C103.315755,42.4647791 107.171321,49.1638023 113.114717,49.4770233 C117.439811,49.7045116 121.65283,40.8867907 121.65283,40.8867907 C120.532075,40.520093 119.581132,38.0245116 121.172264,35.1274302 C123.485943,30.9112558 127.541887,17.0268256 127.541887,17.0268256 C127.541887,17.0268256 129.377547,15.1797558 135.031415,10.3863721 C140.685283,5.5912907 140.203019,4.09818605 140.203019,4.09818605 C140.598679,0.821674419 138.326604,0.0229186047 136.086792,0.00084883721 L135.89066,0.00084883721 Z" id="Fill-10" fill="url(#linearGradient-4)"></path>
                <path d="M148.033868,3.91313953 C148.033868,3.91313953 144.638491,5.68636047 139.581509,9.4967907 C134.526226,13.3063721 132.806038,18.5615233 132.806038,18.5615233 C132.806038,18.5615233 124.207642,37.1086163 123.063962,39.9072326 C123.063962,39.9072326 122.580849,40.9937442 121.889717,40.9292326 C121.198585,40.8647209 123.126792,49.7240349 128.15066,50.1484535 C133.173679,50.5737209 140.138491,47.9788256 141.414623,44.430686 C141.414623,44.430686 139.758962,43.6378721 139.53566,39.9437326 L146.575189,23.2547442 L155.521698,9.04690698 C156.16783,4.38084884 153.542547,3.4012907 151.225472,3.40044186 C149.548585,3.40044186 148.033868,3.91313953 148.033868,3.91313953" id="Fill-7" fill="url(#linearGradient-4)"></path>
                <path d="M161.16283,14.370814 C160.58717,16.8290465 155.139623,28.9928837 155.139623,28.9928837 L145.427264,43.8059419 C145.687075,54.8297907 158.847453,55.9349767 158.847453,55.9349767 C165.380943,46.1224186 170.593302,25.2104651 170.525377,16.8341395 C170.493113,12.8344186 168.486792,11.5331512 166.336981,11.5331512 C163.985943,11.5331512 161.463396,13.0882209 161.16283,14.370814" id="Fill-4" fill="url(#linearGradient-4)"></path>
            </g>
        </g>
        <text id="originales" font-family="CutiveMono-Regular, Cutive Mono" font-size="18" font-weight="normal" letter-spacing="0.3812945" fill="#0F0F0F">
            <tspan x="1513.10134" y="487">originales</tspan>
        </text>
    </g>
</svg>